<?xml version="1.0" encoding="UTF-8" standalone="no"?>
<svg
   xmlns:dc="http://purl.org/dc/elements/1.1/"
   xmlns:cc="http://creativecommons.org/ns#"
   xmlns:rdf="http://www.w3.org/1999/02/22-rdf-syntax-ns#"
   xmlns:svg="http://www.w3.org/2000/svg"
   xmlns="http://www.w3.org/2000/svg"
   xmlns:xlink="http://www.w3.org/1999/xlink"
   xmlns:sodipodi="http://sodipodi.sourceforge.net/DTD/sodipodi-0.dtd"
   xmlns:inkscape="http://www.inkscape.org/namespaces/inkscape"
   width="210mm"
   height="297mm"
   viewBox="0 0 210 297"
   version="1.1"
   id="svg8"
   inkscape:version="1.0.2-2 (e86c870879, 2021-01-15)"
   sodipodi:docname="Ooze-purple-cowboy.svg">
  <defs
     id="defs2">
    <linearGradient
       inkscape:collect="always"
       id="linearGradient1345">
      <stop
         style="stop-color:#22241c;stop-opacity:1"
         offset="0"
         id="stop1341" />
      <stop
         style="stop-color:#3fff00;stop-opacity:0"
         offset="1"
         id="stop1343" />
    </linearGradient>
    <inkscape:path-effect
       effect="spiro"
       id="path-effect1108"
       is_visible="true"
       lpeversion="1" />
    <linearGradient
       inkscape:collect="always"
       id="linearGradient1033">
      <stop
         style="stop-color:#ff7f2a;stop-opacity:0.76430976"
         offset="0"
         id="stop1029" />
      <stop
         style="stop-color:#ff182a;stop-opacity:0.76430976"
         offset="1"
         id="stop1031" />
    </linearGradient>
    <inkscape:path-effect
       effect="spiro"
       id="path-effect1024"
       is_visible="true"
       lpeversion="1" />
    <inkscape:path-effect
       effect="spiro"
       id="path-effect986"
       is_visible="true"
       lpeversion="1" />
    <linearGradient
       inkscape:collect="always"
       id="linearGradient955">
      <stop
         style="stop-color:#442178;stop-opacity:1"
         offset="0"
         id="stop951" />
      <stop
         style="stop-color:#7137c8;stop-opacity:1"
         offset="0.23246695"
         id="stop959" />
      <stop
         style="stop-color:#8d5fd3;stop-opacity:1"
         offset="0.44796038"
         id="stop963" />
      <stop
         style="stop-color:#ff9955;stop-opacity:1"
         offset="0.75239384"
         id="stop961" />
      <stop
         style="stop-color:#ff6600;stop-opacity:1"
         offset="1"
         id="stop953" />
    </linearGradient>
    <inkscape:path-effect
       effect="spiro"
       id="path-effect921"
       is_visible="true"
       lpeversion="1" />
    <inkscape:path-effect
       effect="spiro"
       id="path-effect917"
       is_visible="true"
       lpeversion="1" />
    <inkscape:path-effect
       effect="spiro"
       id="path-effect913"
       is_visible="true"
       lpeversion="1" />
    <inkscape:path-effect
       effect="spiro"
       id="path-effect84"
       is_visible="true"
       lpeversion="1" />
    <linearGradient
       inkscape:collect="always"
       xlink:href="#linearGradient955"
       id="linearGradient957"
       x1="10.205358"
       y1="198.05952"
       x2="208.26488"
       y2="68.791672"
       gradientUnits="userSpaceOnUse" />
    <linearGradient
       inkscape:collect="always"
       xlink:href="#linearGradient1033"
       id="linearGradient1035"
       x1="41.350525"
       y1="178.80634"
       x2="102.46143"
       y2="127.8773"
       gradientUnits="userSpaceOnUse"
       gradientTransform="matrix(0.5015596,0,0,0.49197041,-110.93053,-37.387982)" />
    <linearGradient
       inkscape:collect="always"
       xlink:href="#linearGradient1033"
       id="linearGradient1071"
       gradientUnits="userSpaceOnUse"
       gradientTransform="matrix(0.5015596,0,0,0.49197041,-145.67557,4.3060643)"
       x1="41.350525"
       y1="178.80634"
       x2="102.46143"
       y2="127.8773" />
    <filter
       inkscape:collect="always"
       style="color-interpolation-filters:sRGB"
       id="filter1337"
       x="-0.030121237"
       width="1.0602425"
       y="-0.047236021"
       height="1.094472">
      <feGaussianBlur
         inkscape:collect="always"
         stdDeviation="2.1070643"
         id="feGaussianBlur1339" />
    </filter>
    <linearGradient
       inkscape:collect="always"
       xlink:href="#linearGradient1345"
       id="linearGradient1347"
       x1="108.11053"
       y1="109.9146"
       x2="139.90288"
       y2="109.31632"
       gradientUnits="userSpaceOnUse"
       gradientTransform="matrix(1.0666862,0,0,0.84076165,-8.3084395,18.956333)" />
  </defs>
  <sodipodi:namedview
     id="base"
     pagecolor="#ffffff"
     bordercolor="#666666"
     borderopacity="1.0"
     inkscape:pageopacity="0.0"
     inkscape:pageshadow="2"
     inkscape:zoom="0.7"
     inkscape:cx="148.01741"
     inkscape:cy="547.74348"
     inkscape:document-units="mm"
     inkscape:current-layer="layer1"
     inkscape:document-rotation="0"
     showgrid="false"
     inkscape:window-width="1920"
     inkscape:window-height="986"
     inkscape:window-x="-11"
     inkscape:window-y="-11"
     inkscape:window-maximized="1"
     showguides="false" />
  <metadata
     id="metadata5">
    <rdf:RDF>
      <cc:Work
         rdf:about="">
        <dc:format>image/svg+xml</dc:format>
        <dc:type
           rdf:resource="http://purl.org/dc/dcmitype/StillImage" />
        <dc:title></dc:title>
      </cc:Work>
    </rdf:RDF>
  </metadata>
  <g
     inkscape:label="Layer 1"
     inkscape:groupmode="layer"
     id="layer1">
    <path
       style="fill:#22002b;fill-opacity:1;stroke:#000000;stroke-width:0.910701;stroke-linecap:butt;stroke-linejoin:miter;stroke-miterlimit:4;stroke-dasharray:none;stroke-opacity:1"
       d="m 43.593063,58.48741 c 0.994334,3.389258 2.50354,6.626959 4.459883,9.567791 0.806043,1.211667 1.700289,2.386519 2.838107,3.293829 1.369766,1.092269 3.047012,1.754521 4.76536,2.095978 1.718347,0.341456 3.4839,0.374692 5.23456,0.307608 3.50132,-0.134167 7.05589,-0.660113 10.475,0.105999 3.721592,0.833889 6.94403,3.125461 10.54154,4.391772 3.666832,1.290712 7.63633,1.483058 11.516405,1.245126 3.880075,-0.237932 7.722632,-0.891553 11.593882,-1.245126 5.12858,-0.468409 10.30312,-0.409875 15.40688,-1.097942 3.78841,-0.510737 7.53219,-1.431989 11.35243,-1.568491 4.25928,-0.152189 8.48371,0.674733 12.71975,1.144381 4.23605,0.469647 8.64957,0.560503 12.62049,-0.987532 1.11969,-0.436502 2.18635,-0.997042 3.24355,-1.56849 3.32346,-1.796423 6.58284,-3.714433 9.73065,-5.803414 1.27261,-0.84454 2.55249,-1.741616 3.44627,-2.980132 0.69002,-0.956153 1.12264,-2.088211 1.30297,-3.25347 0.18033,-1.165259 0.11244,-2.362902 -0.14211,-3.514229 -0.50909,-2.302656 -1.74497,-4.385602 -3.18807,-6.25077 -1.80656,-2.334928 -3.97784,-4.404893 -6.4871,-5.960262 -5.0095,-3.105145 -11.25581,-4.011242 -17.02865,-2.823284 -2.49779,0.514004 -4.9506,1.403888 -7.50071,1.411642 -2.93343,0.0089 -5.79299,-1.179635 -8.10888,-2.980131 -0.90283,-0.701906 -1.73195,-1.494751 -2.63538,-2.195887 -2.10812,-1.63608 -4.63493,-2.758302 -7.2836,-3.083094 -2.64866,-0.324792 -5.41337,0.169109 -7.71783,1.514605 -2.59029,1.512378 -4.4601,3.968333 -6.42727,6.232648 -0.98358,1.132157 -2.01214,2.234674 -3.18907,3.164226 -1.17692,0.929551 -2.5121,1.685248 -3.96603,2.053104 -1.776872,0.449564 -3.640637,0.304883 -5.473477,0.313698 -1.419604,0.0068 -2.841629,0.107544 -4.25717,0 C 86.837427,49.668234 82.72402,47.18465 78.663963,44.998394 76.094125,43.61459 73.459866,42.321286 70.675698,41.445278 67.89153,40.569269 64.940677,40.118916 62.04076,40.449773 c -3.168959,0.361553 -6.196044,1.653605 -8.796971,3.499736 -2.600927,1.846131 -4.788986,4.233653 -6.609896,6.852299 -0.31451,0.452297 -0.61877,0.91214 -0.896046,1.388172 -0.779117,1.337602 -1.338159,2.790353 -1.861777,4.247071 -0.202364,0.562981 -0.402951,1.151068 -0.339353,1.745924 0.01098,0.102717 0.02984,0.204592 0.05635,0.304435"
       id="path911-8"
       inkscape:path-effect="#path-effect986"
       inkscape:original-d="m 43.593063,58.48741 c -0.283158,3.581073 2.229261,6.609164 4.459883,9.567791 0.770756,1.022305 1.637528,2.364923 2.838107,3.293829 2.602643,2.013703 16.149024,1.882021 20.47492,2.509585 2.69162,0.390477 6.66426,3.468724 10.54154,4.391772 7.17993,1.709298 15.86415,0.75763 23.110287,0 5.10924,-0.5342 10.2816,-0.569207 15.40688,-1.097942 3.71118,-0.382854 7.45906,-1.233785 11.35243,-1.568491 5.47259,-0.47047 20.84225,1.548914 25.34024,0.156849 1.09544,-0.339024 2.19051,-1.161114 3.24355,-1.56849 7.15338,-2.767337 5.38293,-1.430345 9.73065,-5.803414 1.05221,-1.058338 2.44345,-1.945583 3.44627,-2.980132 3.03516,-3.131117 0.28629,-10.035153 -2.02721,-13.018469 -1.63104,-2.103274 -3.87585,-4.613354 -6.4871,-5.960262 -3.68057,-1.898473 -12.32546,-3.278148 -17.02865,-2.823284 -2.72478,0.263527 -4.55776,1.696268 -7.50071,1.411642 -2.65066,-0.256357 -6.40277,-1.660083 -8.10888,-2.980131 -0.78398,-0.606582 -1.59579,-1.793714 -2.63538,-2.195887 -3.95942,-1.53173 -10.68031,-2.311449 -15.00143,-1.568489 -7.22734,1.242645 -9.9587,7.244443 -13.58237,11.449978 -0.63638,0.738568 -4.601667,0.313698 -5.473477,0.313698 -1.04491,0 -3.24539,0.335498 -4.25717,0 -4.3261,-1.434503 -8.59434,-3.295479 -12.77148,-5.019169 -4.23151,-1.746123 -11.304403,-6.949175 -16.623203,-4.548621 -5.980918,2.69939 -11.933482,5.514695 -15.406867,10.352035 -1.38137,1.923816 -0.896046,-0.776216 -0.896046,1.388172 0,0.601308 -1.756348,3.67708 -1.861777,4.247071 -0.140972,0.762151 -0.269888,1.542118 -0.339353,1.745924 -0.213593,0.626681 0.337176,0.499459 0.05635,0.304435"
       sodipodi:nodetypes="csssssssssssssssssssssssssssc" />
    <path
       style="fill:url(#linearGradient957);stroke:#000000;stroke-width:1.292;stroke-linecap:butt;stroke-linejoin:miter;stroke-miterlimit:4;stroke-dasharray:none;stroke-opacity:1;fill-opacity:1"
       d="m 23.984111,202.37753 c 4.831883,1.52005 9.925403,2.20456 14.987158,2.01411 3.529242,-0.13279 7.049613,-0.6906 10.414808,-1.76235 2.693058,-0.85769 5.272496,-2.03825 7.945966,-2.95518 2.67347,-0.91692 5.495856,-1.57283 8.311291,-1.3248 2.642058,0.23275 5.150735,1.24903 7.536148,2.40853 2.385412,1.15951 4.703644,2.47768 7.196992,3.38204 7.241211,2.62644 15.230613,1.55179 22.861766,0.50353 4.19627,-0.57642 8.51404,-1.17373 12.19294,-3.27293 1.57245,-0.89725 2.98366,-2.04603 4.44068,-3.12062 1.45702,-1.0746 2.98884,-2.09049 4.70404,-2.66994 1.86906,-0.63142 3.89665,-0.71745 5.84748,-0.42359 1.95082,0.29387 3.8314,0.95757 5.61999,1.79004 3.57718,1.66495 6.80872,4.00155 10.37821,5.68292 8.97504,4.22761 19.40505,4.01522 29.21226,2.51765 2.61307,-0.39902 5.22609,-0.88625 7.71827,-1.76739 2.49218,-0.88115 4.87236,-2.17359 6.76085,-4.02318 2.57848,-2.52538 4.08749,-5.90974 5.84245,-9.0635 1.79616,-3.22779 3.89934,-6.28193 5.58844,-9.56702 6.01612,-11.70062 6.31561,-26.01491 1.52412,-38.26807 -2.91436,-7.45282 -7.81176,-14.36222 -14.73314,-18.37875 -2.44161,-1.41689 -5.1539,-2.49883 -7.11255,-4.53174 -1.15225,-1.19593 -1.98655,-2.67307 -2.56769,-4.22877 -0.58115,-1.5557 -0.91717,-3.19281 -1.15736,-4.83606 -0.48038,-3.28648 -0.59242,-6.65556 -1.60937,-9.81745 -1.48827,-4.627349 -4.79328,-8.4375 -8.29682,-11.806847 -3.50355,-3.369346 -7.31499,-6.471131 -10.24662,-10.348356 -1.60211,-2.118876 -2.917,-4.438823 -4.42467,-6.625911 -1.50766,-2.187087 -3.24677,-4.275323 -5.48209,-5.710507 -2.23956,-1.437909 -4.88982,-2.154436 -7.54379,-2.353636 -2.65397,-0.1992 -5.32273,0.09934 -7.94261,0.56785 -5.23974,0.93701 -10.44214,2.561823 -15.75802,2.289313 -2.92264,-0.149824 -5.78079,-0.871642 -8.63666,-1.510583 -5.92778,-1.326216 -11.96204,-2.3104 -18.036304,-2.338206 -6.074264,-0.02781 -12.208954,0.925415 -17.780471,3.345261 -4.674656,2.030317 -8.848827,5.037512 -12.955003,8.056438 -7.885228,5.797345 -15.732403,11.781036 -22.190657,19.134741 -6.458255,7.353703 -11.50677,16.238493 -12.864055,25.930953 -0.740114,5.2852 -0.372442,10.65686 -0.619416,15.98792 -0.246975,5.33105 -1.188237,10.82982 -4.206957,15.23078 -0.476337,0.69445 -1.000125,1.35488 -1.524118,2.01411 -3.105172,3.90658 -6.24414,7.80749 -8.8396783,12.06973 -2.595538,4.26224 -4.6478739,8.92639 -5.3854224,13.86193 -0.6733721,4.50608 -0.2222955,9.17788 1.3168743,13.46614 1.5391697,4.28826 4.1649515,8.1838 7.5738134,11.20669 1.668482,1.47956 3.555366,2.76904 5.686099,3.427 2.130734,0.65797 4.53335,0.63255 6.506845,-0.40584 0.323871,-0.17041 0.636078,-0.36786 0.904657,-0.61645 0.268578,-0.24859 0.493001,-0.5507 0.619461,-0.89412 0.148795,-0.40408 0.155253,-0.859 0.01799,-1.26714 -0.137266,-0.40814 -0.417312,-0.7667 -0.780047,-0.99874"
       id="path82"
       inkscape:path-effect="#path-effect84"
       inkscape:original-d="m 23.984111,202.37753 c 2.793836,3.21331 10.439882,2.38969 14.987158,2.01411 3.427832,-0.28311 7.073746,-0.76893 10.414808,-1.76235 5.38007,-1.59968 10.454727,-4.75923 16.257257,-4.27998 5.311898,0.43873 9.616076,4.52267 14.73314,5.79057 5.134003,1.2721 17.243753,1.19954 22.861766,0.50353 3.79478,-0.47014 8.85653,-1.28886 12.19294,-3.27293 3.00564,-1.78736 5.34022,-5.3716 9.14472,-5.79056 8.67093,-0.95489 14.90465,3.22749 21.84568,7.04937 5.23992,2.88522 23.51903,3.64618 29.21226,2.51765 4.76751,-0.94504 10.87376,-2.21723 14.47912,-5.79057 2.56253,-2.53978 4.14221,-6.03023 5.84245,-9.0635 1.75453,-3.1301 4.16809,-6.18847 5.58844,-9.56702 5.11254,-12.16112 6.11535,-25.75429 1.52412,-38.26807 -2.92996,-7.98583 -7.92808,-12.98305 -14.73314,-18.37875 -2.08188,-1.6507 -4.50408,-3.79309 -7.11255,-4.53174 -8.59882,-2.43499 2.05539,-13.02293 -5.33442,-18.88228 -6.26526,-4.967692 -14.67944,-15.134116 -18.54344,-22.155203 -3.10959,-5.650284 -5.03847,-7.511354 -9.90676,-12.336418 -4.46547,-4.42581 -25.36766,2.83335 -31.24442,0.503527 -2.54453,-1.008777 -5.93984,-1.08855 -8.63666,-1.510583 C 96.061332,63.367415 83.033181,61.868358 71.739805,66.173388 67.956434,67.615608 62.065061,71.67537 58.784802,74.229826 43.17387,86.386624 30.092626,100.37743 23.73009,119.29552 c -3.378557,10.04566 -1.076387,21.30754 -4.826373,31.2187 -1.027401,2.71541 0.145713,-0.88214 -1.524118,2.01411 -4.84333,8.40055 -12.8657556,15.82711 -14.2251007,25.93166 -1.1959405,8.88989 1.3028486,19.30108 8.8906877,24.67283 3.07805,2.17909 8.311515,4.55995 12.192944,3.02116 1.17432,-0.46554 0.49568,-0.63688 1.524118,-1.51057 2.149217,-1.82583 1.752665,-1.64279 -0.762059,-2.26588"
       sodipodi:nodetypes="csssssssssssssssssssssssssssssc" />
    <path
       style="opacity:0.771044;fill:#660080;fill-opacity:1;stroke:#000000;stroke-width:1.29156;stroke-linecap:butt;stroke-linejoin:miter;stroke-miterlimit:4;stroke-dasharray:none;stroke-opacity:1"
       d="m 28.456933,54.208993 c 1.298974,5.301515 3.176472,10.461071 5.588433,15.357584 0.943853,1.916111 1.996404,3.827877 3.556274,5.287036 1.615779,1.511459 3.702788,2.455656 5.857963,2.956125 2.155175,0.50047 4.386871,0.578402 6.598767,0.525798 4.423792,-0.105207 8.956591,-0.710999 13.199256,0.546296 4.797596,1.421746 8.62083,5.052685 13.209021,7.049382 4.486028,1.952237 9.528367,2.260301 14.407547,1.900739 4.87918,-0.359562 9.688906,-1.354168 14.550686,-1.900739 6.42404,-0.722202 12.93534,-0.661932 19.3055,-1.762344 4.75012,-0.820558 9.41028,-2.284345 14.2251,-2.517638 5.35838,-0.25963 10.65458,1.014546 15.96934,1.74457 5.31476,0.730025 10.96503,0.866374 15.78311,-1.492806 1.43273,-0.701536 2.75435,-1.607225 4.06432,-2.517636 4.20237,-2.9206 8.35339,-5.931809 12.19294,-9.315256 1.61805,-1.425837 3.19867,-2.940291 4.31833,-4.78351 1.91802,-3.157511 2.32115,-7.076595 1.66929,-10.713043 -0.65185,-3.636448 -2.28597,-7.029173 -4.20948,-10.183342 -2.19068,-3.592271 -4.81331,-6.976241 -8.12863,-9.567018 -5.93448,-4.637535 -14.04461,-6.412267 -21.33765,-4.531747 -3.13238,0.807688 -6.16391,2.25562 -9.39873,2.265874 -1.92204,0.0061 -3.82842,-0.508162 -5.54835,-1.366126 -1.71994,-0.857964 -3.25871,-2.052934 -4.61243,-3.417384 -1.13412,-1.143117 -2.14349,-2.406565 -3.30226,-3.524691 -2.45966,-2.373386 -5.61529,-4.060721 -8.99322,-4.58269 -3.37793,-0.521969 -6.96455,0.162676 -9.80424,2.065055 -1.76736,1.184002 -3.21153,2.79627 -4.45204,4.52444 -1.24051,1.72817 -2.29286,3.582215 -3.4134,5.390479 -1.12055,1.808265 -2.32032,3.584823 -3.81199,5.101517 -1.49167,1.516695 -3.29816,2.771833 -5.34188,3.36231 -2.210065,0.638539 -4.558262,0.473337 -6.858524,0.503527 -1.779123,0.02335 -3.56297,0.16675 -5.334415,0 -3.010754,-0.283409 -5.8788,-1.456457 -8.501327,-2.962216 -2.622527,-1.505758 -5.034569,-3.345741 -7.501911,-5.094221 -3.076299,-2.180016 -6.273198,-4.237175 -9.768698,-5.65053 -3.495499,-1.413355 -7.325416,-2.162617 -11.060914,-1.650616 -4.369821,0.598943 -8.386323,2.901957 -11.582594,5.941351 -3.196272,3.039394 -5.634511,6.790117 -7.722898,10.67505 -0.393866,0.732691 -0.776576,1.471826 -1.122785,2.228202 -1.000679,2.186223 -1.689411,4.500468 -2.33289,6.817117 -0.254276,0.915444 -0.504311,1.855636 -0.425224,2.802441 0.01371,0.164106 0.0373,0.327386 0.07061,0.48866"
       id="path911"
       inkscape:path-effect="#path-effect913"
       inkscape:original-d="m 28.456933,54.208993 c -0.354809,5.748101 2.793364,10.608592 5.588433,15.357584 0.965791,1.640936 2.051895,3.796018 3.556274,5.287036 3.261228,3.232262 20.235447,3.020895 25.655986,4.028219 3.372716,0.626769 8.350621,5.567767 13.209021,7.049382 8.996768,2.743652 19.878494,1.216097 28.958233,0 6.4021,-0.857463 12.8833,-0.913654 19.3055,-1.762344 4.65028,-0.614532 9.34654,-1.98039 14.2251,-2.517638 6.8574,-0.755167 26.11627,2.486215 31.75245,0.251764 1.37264,-0.544179 2.74481,-1.863743 4.06432,-2.517636 8.9635,-4.441946 6.74505,-2.295895 12.19294,-9.315256 1.31846,-1.698774 3.06174,-3.122921 4.31833,-4.78351 3.80318,-5.025862 0.35873,-16.107764 -2.54019,-20.896385 -2.04377,-3.376035 -4.85661,-7.405049 -8.12863,-9.567018 -4.61191,-3.047303 -15.44435,-5.261866 -21.33765,-4.531747 -3.41427,0.422995 -5.71108,2.722736 -9.39873,2.265874 -3.32139,-0.411487 -8.02295,-2.664655 -10.16078,-4.78351 -0.98237,-0.973645 -1.9996,-2.87915 -3.30226,-3.524691 -4.96133,-2.458632 -13.3829,-3.710185 -18.79746,-2.517635 -9.05618,1.994611 -12.47869,11.628299 -17.01931,18.378746 -0.797416,1.185501 -5.766106,0.503527 -6.858524,0.503527 -1.309304,0 -4.066608,0.538519 -5.334415,0 C 82.984768,38.311186 77.636481,35.32407 72.402333,32.557318 67.100064,29.754556 58.237414,21.402962 51.572721,25.256172 c -7.494357,4.332882 -14.953186,8.851824 -19.305492,16.616401 -1.730918,3.087982 -1.122785,-1.24593 -1.122785,2.228202 0,0.965179 -2.200783,5.902206 -2.33289,6.817117 -0.176644,1.223354 -0.338182,2.475305 -0.425224,2.802441 -0.267642,1.005908 0.422496,0.801699 0.07061,0.48866"
       sodipodi:nodetypes="csssssssssssssssssssssssssssc" />
    <path
       style="opacity:0.313131;fill:url(#linearGradient1071);fill-opacity:1;stroke:#000000;stroke-width:0.245488;stroke-linecap:butt;stroke-linejoin:miter;stroke-miterlimit:4;stroke-dasharray:none;stroke-opacity:1"
       d="m -106.83318,92.2278 c 1.90343,0.244595 3.88219,-0.137685 5.55754,-1.07367 1.520377,-0.849405 2.785724,-2.148745 3.594536,-3.6911 1.311308,-0.72431 2.295725,-2.016675 2.64566,-3.47328 0.30518,-1.270313 0.129969,-2.650028 -0.48304,-3.80374 -0.119738,-1.647467 -0.312342,-3.289637 -0.57706,-4.9201 -0.211242,-1.301089 -0.470717,-2.602868 -0.9499,-3.83081 -0.683942,-1.752653 -1.821586,-3.333865 -3.302036,-4.49483 -2.04364,-1.602619 -4.73036,-2.359895 -7.31013,-2.060426 -2.57976,0.29947 -5.02155,1.652085 -6.64372,3.680246 -2.91168,0.739133 -5.5022,2.668977 -7.04374,5.24732 -1.63129,2.728464 -2.05888,6.148386 -1.14959,9.1945 l 2.74447,2.09034 3.56667,5.46871 9.35034,1.66682 z"
       id="path82-5"
       sodipodi:nodetypes="ccccccscccscccc"
       inkscape:original-d="m -106.83318,92.2278 c 4.2634,-0.51983 0.47891,-4.27588 5.55754,-1.07367 0.93307,0.58535 2.580736,-3.46215 3.594536,-3.6911 2.70257,-0.80302 1.84386,-1.36115 2.64566,-3.47328 0.9104,-2.46724 0.33453,-1.26497 -0.48304,-3.80374 -0.8978,-1.72368 1.32671,-4.26156 -0.57706,-4.9201 -1.53118,-0.49402 0.36602,-2.64208 -0.9499,-3.83081 -1.11565,-1.00785 -2.61397,-3.07039 -3.302036,-4.49483 -2.20966,-5.040481 -11.40306,2.52252 -13.95385,1.61982 -4.17294,0.18176 -4.86801,-1.77429 -7.04374,5.24732 -0.60162,2.03805 -0.48183,7.18373 -1.14959,9.1945 0,0 3.04182,1.50276 2.74447,2.09034 -1.82469,3.10047 0.11066,0.98414 3.56667,5.46871 6.4724,0.21363 9.24634,1.67521 9.35034,1.66682 z"
       inkscape:path-effect="#path-effect1024" />
    <path
       style="opacity:0.875421;fill:#d4aa47;fill-opacity:0.30737704;stroke:#000000;stroke-width:1.01107;stroke-linecap:butt;stroke-linejoin:miter;stroke-miterlimit:4;stroke-dasharray:none;stroke-opacity:1;filter:url(#filter1337)"
       d="m 40.616626,186.92604 c 4.014246,1.12889 8.202926,1.63521 12.370539,1.49534 2.904149,-0.0975 5.802944,-0.50861 8.596488,-1.30842 2.225469,-0.63716 4.374199,-1.51712 6.586463,-2.19872 2.212264,-0.6816 4.525146,-1.1664 6.832422,-0.97888 2.15188,0.17489 4.214189,0.92694 6.194026,1.788 1.979836,0.86106 3.914677,1.84047 5.966852,2.51111 6.031637,1.9711 12.571646,1.14368 18.870314,0.37384 3.44477,-0.42103 6.97746,-0.84377 10.06417,-2.42994 2.58287,-1.32727 4.77602,-3.43412 7.54814,-4.2991 1.53286,-0.4783 3.17604,-0.54724 4.76739,-0.33269 1.59134,0.21456 3.13538,0.70624 4.61658,1.3263 2.96238,1.24013 5.68876,2.99167 8.64766,4.24008 7.51642,3.17131 16.0198,2.90301 24.11208,1.86919 2.13425,-0.27266 4.27234,-0.59702 6.32609,-1.23848 2.05375,-0.64146 4.03207,-1.61441 5.62511,-3.06063 2.05068,-1.86168 3.34825,-4.38428 4.82241,-6.72906 1.50295,-2.39058 3.2264,-4.64284 4.61276,-7.10288 4.82194,-8.55634 5.13097,-19.38586 1.25802,-28.41151 -2.45181,-5.71378 -6.61647,-10.8311 -12.16088,-13.64501 -2.02135,-1.02588 -4.25405,-1.77565 -5.87076,-3.36453 -0.88691,-0.87164 -1.54233,-1.95961 -2.01061,-3.1116 -0.46827,-1.15199 -0.75543,-2.36997 -0.9713,-3.59462 -0.43175,-2.4493 -0.5908,-4.96827 -1.42117,-7.31262 -1.26376,-3.56795 -3.97408,-6.42812 -6.84085,-8.89977 -2.86676,-2.47164 -5.98266,-4.691575 -8.46508,-7.549017 -1.34959,-1.553479 -2.49207,-3.273664 -3.75538,-4.898089 -1.26331,-1.624425 -2.6736,-3.175234 -4.42176,-4.260886 -1.86409,-1.157648 -4.04696,-1.738495 -6.23475,-1.907485 -2.18779,-0.16899 -4.38898,0.05936 -6.55228,0.426953 -4.32659,0.735185 -8.61741,2.032536 -13.00241,1.854376 -2.40639,-0.09777 -4.76915,-0.639401 -7.12878,-1.121522 -9.798829,-2.002104 -20.271085,-2.950478 -29.563507,0.747678 -3.801247,1.512803 -7.263128,3.7514 -10.693181,5.981375 -6.379585,4.147549 -12.798561,8.358487 -18.152493,13.765577 -5.353932,5.4071 -9.631228,12.17096 -10.782,19.69273 -0.602003,3.93486 -0.337569,7.94604 -0.564614,11.9202 -0.227046,3.97416 -1.017921,8.08276 -3.419114,11.25763 -0.393033,0.51967 -0.825058,1.00844 -1.258024,1.49534 -2.534966,2.85075 -5.12797,5.66914 -7.283848,8.81636 -2.155879,3.14722 -3.876184,6.66596 -4.457688,10.43619 -0.52524,3.40544 -0.09293,6.94842 1.200356,10.14222 1.293286,3.19379 3.440371,6.03208 6.138098,8.17572 1.416778,1.12578 3.005359,2.07282 4.751882,2.54643 1.746523,0.47361 3.665017,0.44567 5.312297,-0.30341 0.26237,-0.11931 0.518589,-0.25725 0.741499,-0.43997 0.22291,-0.18271 0.4122,-0.41285 0.516524,-0.68153 0.118549,-0.30532 0.120738,-0.65421 0.006,-0.96099 -0.114707,-0.30678 -0.345262,-0.56864 -0.635043,-0.72128"
       id="path82-7"
       inkscape:path-effect="#path-effect1108"
       inkscape:original-d="m 40.616626,186.92604 c 2.306062,2.38567 8.617173,1.77419 12.370539,1.49534 2.829365,-0.21019 5.838735,-0.57088 8.596488,-1.30842 4.440758,-1.18766 8.629422,-3.53342 13.418885,-3.1776 4.384492,0.32573 7.937204,3.35778 12.160878,4.29911 4.237655,0.94445 14.233154,0.89058 18.870314,0.37384 3.13225,-0.34905 7.31026,-0.95689 10.06417,-2.42994 2.48088,-1.32699 4.40787,-3.98805 7.54814,-4.2991 7.15706,-0.70895 12.30244,2.3962 18.03163,5.23369 4.32508,2.14208 19.41283,2.70705 24.11208,1.86919 3.93515,-0.70163 8.9753,-1.64615 11.9512,-4.29911 2.11514,-1.88563 3.41902,-4.47706 4.82241,-6.72906 1.44821,-2.32389 3.44039,-4.59453 4.61276,-7.10288 4.21994,-9.02883 5.04766,-19.12086 1.25802,-28.41151 -2.41841,-5.92896 -6.54391,-9.63907 -12.16088,-13.64501 -1.7184,-1.22554 -3.71771,-2.81612 -5.87076,-3.36453 -7.09754,-1.80781 1.69654,-9.66866 -4.40308,-14.01884 -5.1714,-3.68818 -12.11655,-11.23609 -15.30593,-16.448787 -2.56669,-4.194967 -4.15881,-5.57668 -8.17714,-9.158975 -3.68584,-3.285872 -20.93871,2.103573 -25.78944,0.373844 -2.10027,-0.748958 -4.9028,-0.808178 -7.12878,-1.121522 -9.48829,-1.335568 -20.241842,-2.448525 -29.563507,0.747678 -3.122831,1.070755 -7.985618,4.084859 -10.693181,5.981375 -12.885408,9.025617 -23.6828,19.412877 -28.934493,33.458307 -2.788696,7.45824 -0.888456,15.81944 -3.983728,23.17783 -0.848031,2.01601 0.120268,-0.65493 -1.258024,1.49534 -3.997727,6.23686 -10.619519,11.75058 -11.741536,19.25255 -0.987133,6.60016 1.075391,14.32978 7.338454,18.31794 2.540651,1.61784 6.860412,3.38547 10.064179,2.24302 0.969299,-0.34563 0.409142,-0.47285 1.258023,-1.1215 1.773977,-1.35556 1.44666,-1.21967 -0.629012,-1.68227"
       sodipodi:nodetypes="csssssssssssssssssssssssssssssc" />
    <ellipse
       style="fill:url(#linearGradient1347);fill-opacity:1;fill-rule:evenodd;stroke-width:0.237082"
       id="path86"
       cx="116.03973"
       cy="111.6352"
       rx="9.6190548"
       ry="8.4669285" />
    <path
       style="fill:#000000;stroke:#000000;stroke-width:0.250347px;stroke-linecap:butt;stroke-linejoin:miter;stroke-opacity:1"
       d="m 54.21245,161.08829 c 3.34961,-1.39435 7.156183,-1.66384 10.668824,-0.75529 4.146556,1.07251 7.717295,3.67388 11.684904,5.28704 3.604958,1.46571 7.554101,2.10084 11.430884,1.76234 4.268404,-0.37269 8.338889,-1.8913 12.485968,-2.96827 4.14709,-1.07698 8.61167,-1.7022 12.66198,-0.30466 2.86206,0.98754 5.3119,2.91794 8.12862,4.02823 4.30303,1.69616 9.09293,1.36044 13.71707,1.25881 2.11646,-0.0465 4.23386,-0.0385 6.35048,0 1.64572,0.0299 3.29677,0.078 4.93362,-0.0952 1.63684,-0.17328 3.27157,-0.57715 4.69903,-1.39668 1.42747,-0.81954 2.63755,-2.08352 3.18939,-3.63425 0.27591,-0.77536 0.38367,-1.61349 0.28391,-2.43042 -0.0998,-0.81693 -0.40976,-1.61098 -0.913,-2.26219 -0.44526,-0.57618 -1.03585,-1.03465 -1.69154,-1.35137 -0.65569,-0.31672 -1.37529,-0.49358 -2.10142,-0.5482 -1.45225,-0.10926 -2.90672,0.26632 -4.24198,0.84774 -2.67051,1.16285 -4.95511,3.1398 -7.71428,4.073 -1.85234,0.6265 -3.84847,0.75215 -5.79518,0.56783 -1.94671,-0.18433 -3.8528,-0.67079 -5.72248,-1.24343 -3.73938,-1.1453 -7.43808,-2.65519 -11.34411,-2.8491 -5.09319,-0.25284 -9.99103,1.748 -14.987155,2.7694 -4.172285,0.85298 -8.448874,1.02404 -12.70098,1.25882 -2.472377,0.13652 -4.954264,0.29533 -7.421292,0.0831 -2.467027,-0.21228 -4.940478,-0.81337 -7.057829,-2.09716 -1.302769,-0.78989 -2.452877,-1.82586 -3.810295,-2.51764 -1.707409,-0.87014 -3.713259,-1.1504 -5.588431,-0.75528 -1.130254,0.23816 -2.195478,0.70872 -3.268834,1.13545 -1.073357,0.42673 -2.182294,0.81625 -3.335679,0.87865 -0.259725,0.0141 -0.520524,0.0114 -0.779212,0.0385 -0.258689,0.0271 -0.518294,0.0856 -0.744904,0.21325 -0.152545,0.0859 -0.286537,0.20117 -0.413279,0.32198 -0.220461,0.21014 -0.422427,0.43967 -0.6028,0.68508"
       id="path915"
       inkscape:path-effect="#path-effect917"
       inkscape:original-d="m 54.21245,161.08829 c 2.500506,-1.12775 7.842819,-1.31547 10.668824,-0.75529 4.634032,0.91857 7.83567,2.998 11.684904,5.28704 2.840518,1.68917 8.182748,1.40465 11.430884,1.76234 8.458618,0.9315 16.868898,-5.32431 25.147948,-3.27293 2.72146,0.67433 5.43867,2.88562 8.12862,4.02823 3.83397,1.62853 9.55858,0.96442 13.71707,1.25881 1.36462,0.0966 5.02988,0.87259 6.35048,0 2.09842,-1.38652 14.86799,-4.51623 12.19295,-9.81878 -0.8681,-1.72077 -14.03935,3.02117 -15.74922,3.02117 -7.89517,0 -15.18837,-2.25716 -22.86177,-3.5247 -5.34959,-0.88368 -9.97087,1.66457 -14.987155,2.7694 -4.062654,0.89479 -8.529478,0.88296 -12.70098,1.25882 -3.587667,0.32326 -11.694883,0.7454 -14.479121,-2.01411 -0.994606,-0.98577 -2.292913,-2.05489 -3.810295,-2.51764 -1.805119,-0.55049 -3.781018,-0.39702 -5.588431,-0.75528 -2.29564,-0.45506 -4.656813,1.37063 -6.604513,2.0141 -0.488617,0.16143 -1.649035,-0.24346 -1.524116,0.25176 0.09184,0.36411 -0.145518,0.0566 -0.413279,0.32198 -0.359238,0.35605 -0.09476,0.68508 -0.6028,0.68508"
       sodipodi:nodetypes="cssssssssssssssssssc" />
    <ellipse
       style="fill:#ffff00;fill-opacity:0.76229507;fill-rule:evenodd;stroke-width:0.082983"
       id="path86-2"
       cx="119.47487"
       cy="112.84883"
       rx="3.2907352"
       ry="3.0321305" />
  </g>
</svg>
