<?xml version="1.0" encoding="UTF-8" standalone="no"?>
<svg
   xmlns:dc="http://purl.org/dc/elements/1.1/"
   xmlns:cc="http://creativecommons.org/ns#"
   xmlns:rdf="http://www.w3.org/1999/02/22-rdf-syntax-ns#"
   xmlns:svg="http://www.w3.org/2000/svg"
   xmlns="http://www.w3.org/2000/svg"
   xmlns:xlink="http://www.w3.org/1999/xlink"
   xmlns:sodipodi="http://sodipodi.sourceforge.net/DTD/sodipodi-0.dtd"
   xmlns:inkscape="http://www.inkscape.org/namespaces/inkscape"
   width="200mm"
   height="200mm"
   viewBox="0 0 200 200"
   version="1.1"
   id="svg8"
   inkscape:version="1.0.2-2 (e86c870879, 2021-01-15)"
   sodipodi:docname="Ooze-cowboy-purple-resized.svg">
  <defs
     id="defs2">
    <linearGradient
       inkscape:collect="always"
       id="linearGradient1345">
      <stop
         style="stop-color:#22241c;stop-opacity:1"
         offset="0"
         id="stop1341" />
      <stop
         style="stop-color:#3fff00;stop-opacity:0"
         offset="1"
         id="stop1343" />
    </linearGradient>
    <inkscape:path-effect
       effect="spiro"
       id="path-effect1108"
       is_visible="true"
       lpeversion="1" />
    <linearGradient
       inkscape:collect="always"
       id="linearGradient1033">
      <stop
         style="stop-color:#ff7f2a;stop-opacity:0.76430976"
         offset="0"
         id="stop1029" />
      <stop
         style="stop-color:#ff182a;stop-opacity:0.76430976"
         offset="1"
         id="stop1031" />
    </linearGradient>
    <inkscape:path-effect
       effect="spiro"
       id="path-effect1024"
       is_visible="true"
       lpeversion="1" />
    <inkscape:path-effect
       effect="spiro"
       id="path-effect986"
       is_visible="true"
       lpeversion="1" />
    <linearGradient
       inkscape:collect="always"
       id="linearGradient955">
      <stop
         style="stop-color:#442178;stop-opacity:1"
         offset="0"
         id="stop951" />
      <stop
         style="stop-color:#7137c8;stop-opacity:1"
         offset="0.23246695"
         id="stop959" />
      <stop
         style="stop-color:#8d5fd3;stop-opacity:1"
         offset="0.44796038"
         id="stop963" />
      <stop
         style="stop-color:#ff9955;stop-opacity:1"
         offset="0.75239384"
         id="stop961" />
      <stop
         style="stop-color:#ff6600;stop-opacity:1"
         offset="1"
         id="stop953" />
    </linearGradient>
    <inkscape:path-effect
       effect="spiro"
       id="path-effect921"
       is_visible="true"
       lpeversion="1" />
    <inkscape:path-effect
       effect="spiro"
       id="path-effect917"
       is_visible="true"
       lpeversion="1" />
    <inkscape:path-effect
       effect="spiro"
       id="path-effect913"
       is_visible="true"
       lpeversion="1" />
    <inkscape:path-effect
       effect="spiro"
       id="path-effect84"
       is_visible="true"
       lpeversion="1" />
    <linearGradient
       inkscape:collect="always"
       xlink:href="#linearGradient955"
       id="linearGradient957"
       x1="10.205358"
       y1="198.05952"
       x2="208.26488"
       y2="68.791672"
       gradientUnits="userSpaceOnUse"
       gradientTransform="matrix(0.97812535,0,0,1.0622969,-2.2944634,-20.096128)" />
    <linearGradient
       inkscape:collect="always"
       xlink:href="#linearGradient1033"
       id="linearGradient1035"
       x1="41.350525"
       y1="178.80634"
       x2="102.46143"
       y2="127.8773"
       gradientUnits="userSpaceOnUse"
       gradientTransform="matrix(0.5015596,0,0,0.49197041,-110.93053,-37.387982)" />
    <linearGradient
       inkscape:collect="always"
       xlink:href="#linearGradient1033"
       id="linearGradient1071"
       gradientUnits="userSpaceOnUse"
       gradientTransform="matrix(0.49058816,0,0,0.52261865,-144.78342,-15.521808)"
       x1="41.350525"
       y1="178.80634"
       x2="102.46143"
       y2="127.8773" />
    <filter
       inkscape:collect="always"
       style="color-interpolation-filters:sRGB"
       id="filter1337"
       x="-0.030121237"
       width="1.0602425"
       y="-0.047236022"
       height="1.0944721">
      <feGaussianBlur
         inkscape:collect="always"
         stdDeviation="2.1070643"
         id="feGaussianBlur1339" />
    </filter>
    <linearGradient
       inkscape:collect="always"
       xlink:href="#linearGradient1345"
       id="linearGradient1347"
       x1="108.11053"
       y1="109.9146"
       x2="139.90288"
       y2="109.31632"
       gradientUnits="userSpaceOnUse"
       gradientTransform="matrix(1.0433528,0,0,0.8931385,-10.421158,0.04112666)" />
  </defs>
  <sodipodi:namedview
     id="base"
     pagecolor="#ffffff"
     bordercolor="#666666"
     borderopacity="1.0"
     inkscape:pageopacity="0.0"
     inkscape:pageshadow="2"
     inkscape:zoom="0.7"
     inkscape:cx="148.01741"
     inkscape:cy="518.75612"
     inkscape:document-units="mm"
     inkscape:current-layer="layer1"
     inkscape:document-rotation="0"
     showgrid="false"
     inkscape:window-width="1920"
     inkscape:window-height="986"
     inkscape:window-x="-11"
     inkscape:window-y="-11"
     inkscape:window-maximized="1"
     showguides="false" />
  <metadata
     id="metadata5">
    <rdf:RDF>
      <cc:Work
         rdf:about="">
        <dc:format>image/svg+xml</dc:format>
        <dc:type
           rdf:resource="http://purl.org/dc/dcmitype/StillImage" />
        <dc:title></dc:title>
      </cc:Work>
    </rdf:RDF>
  </metadata>
  <g
     inkscape:label="Layer 1"
     inkscape:groupmode="layer"
     id="layer1">
    <path
       style="fill:#22002b;fill-opacity:1;stroke:#000000;stroke-width:0.928316;stroke-linecap:butt;stroke-linejoin:miter;stroke-miterlimit:4;stroke-dasharray:none;stroke-opacity:1"
       d="m 40.345017,42.034869 c 0.977291,3.567091 2.449887,6.998111 4.362325,10.163836 0.773362,1.280173 1.633279,2.534108 2.776025,3.499024 1.312601,1.108339 2.949528,1.786931 4.630899,2.139533 1.681371,0.352602 3.413375,0.392972 5.130281,0.333244 3.433814,-0.119456 6.929514,-0.627925 10.265857,0.193148 3.67093,0.903415 6.775074,3.327655 10.310949,4.665366 3.561016,1.347223 7.459844,1.551496 11.259079,1.303187 3.799234,-0.248309 7.556505,-0.931789 11.345688,-1.303187 5.01574,-0.491619 10.08326,-0.43609 15.06985,-1.166342 3.70622,-0.542752 7.36127,-1.518524 11.10411,-1.666202 4.1712,-0.164579 8.30372,0.703905 12.44878,1.19834 4.14506,0.494434 8.4901,0.588856 12.33714,-1.031719 1.10167,-0.464079 2.14175,-1.060926 3.17261,-1.666202 3.26103,-1.914731 6.46564,-3.932278 9.5178,-6.16495 1.25039,-0.914662 2.496,-1.887243 3.37087,-3.165784 1.40263,-2.049805 1.69949,-4.7195 1.19811,-7.15213 -0.50137,-2.432631 -1.73474,-4.658076 -3.18098,-6.67735 -1.74919,-2.44227 -3.85041,-4.658116 -6.34519,-6.331569 -4.81538,-3.230076 -10.99579,-4.256782 -16.65615,-2.999166 -2.44344,0.542881 -4.83363,1.492469 -7.33664,1.499583 -2.90678,0.0083 -5.71308,-1.287468 -7.9315,-3.165784 -0.88452,-0.748917 -1.68853,-1.589323 -2.57773,-2.332685 -2.01685,-1.686072 -4.48712,-2.855736 -7.09313,-3.200986 -2.60602,-0.345251 -5.34059,0.15823 -7.58015,1.534786 -2.59566,1.595433 -4.36603,4.201296 -6.24045,6.603255 -0.9372,1.20098 -1.92405,2.373691 -3.07987,3.366054 -1.155821,0.992364 -2.492484,1.80336 -3.964943,2.193967 -1.733719,0.459913 -3.56011,0.32041 -5.353748,0.333241 -1.388628,0.0099 -2.780003,0.11317 -4.164047,0 -2.277527,-0.186228 -4.474152,-0.95535 -6.530737,-1.951477 -2.056585,-0.996127 -3.992785,-2.21999 -5.961371,-3.380371 -2.481147,-1.46251 -5.034381,-2.833875 -7.759369,-3.766328 -2.724988,-0.932452 -5.641449,-1.415693 -8.500208,-1.065658 -3.189651,0.390551 -6.203381,1.812795 -8.735652,3.791179 -2.532272,1.978385 -4.604378,4.497595 -6.334195,7.205757 -0.307882,0.482014 -0.605713,0.970832 -0.876446,1.47465 -0.768676,1.430462 -1.312543,2.96941 -1.82105,4.511651 -0.198184,0.60107 -0.393962,1.224838 -0.33193,1.85469 0.01073,0.108918 0.02916,0.217077 0.05512,0.323399"
       id="path911-8"
       inkscape:path-effect="#path-effect986"
       inkscape:original-d="m 40.345017,42.034869 c -0.276964,3.804163 2.180497,7.020895 4.362325,10.163836 0.753895,1.085991 1.601707,2.51225 2.776025,3.499024 2.545711,2.139151 15.795769,1.999266 20.027037,2.665925 2.632742,0.414803 6.518482,3.684815 10.310949,4.665366 7.022872,1.815782 15.517127,0.804828 22.604767,0 4.99746,-0.567478 10.05669,-0.604666 15.06985,-1.166342 3.63,-0.406704 7.29591,-1.310644 11.10411,-1.666202 5.35288,-0.499778 20.38633,1.645407 24.78592,0.166621 1.07148,-0.360145 2.14259,-1.233449 3.17261,-1.666202 6.9969,-2.939735 5.26517,-1.519452 9.5178,-6.16495 1.02919,-1.124268 2.38999,-2.066786 3.37087,-3.165784 2.96877,-3.326178 0.28004,-10.660313 -1.98287,-13.82948 -1.59535,-2.234302 -3.79106,-4.900753 -6.34519,-6.331569 -3.60005,-2.016742 -12.05585,-3.482367 -16.65615,-2.999166 -2.66519,0.279944 -4.45806,1.80194 -7.33664,1.499583 -2.59267,-0.272327 -6.26271,-1.763502 -7.9315,-3.165784 -0.76683,-0.64437 -1.56088,-1.905457 -2.57773,-2.332685 -3.8728,-1.627152 -10.44668,-2.455444 -14.67328,-1.6662 -7.06924,1.320058 -9.74086,7.69575 -13.285263,12.163276 -0.622461,0.78458 -4.501009,0.333241 -5.353748,0.333241 -1.022054,0 -3.1744,0.356398 -4.164047,0 C 82.909394,31.513509 78.73452,29.5366 74.648754,27.705529 70.509806,25.850627 63.59163,20.323442 58.389177,22.873543 52.539089,25.741096 46.716736,28.731786 43.31933,33.870479 c -1.351153,2.043663 -0.876446,-0.824573 -0.876446,1.47465 0,0.638767 -1.717928,3.90615 -1.82105,4.511651 -0.13789,0.80963 -0.263985,1.638187 -0.33193,1.85469 -0.208921,0.66572 0.329799,0.530574 0.05512,0.323399"
       sodipodi:nodetypes="csssssssssssssssssssssssssssc" />
    <path
       style="fill:url(#linearGradient957);fill-opacity:1;stroke:#000000;stroke-width:1.31698;stroke-linecap:butt;stroke-linejoin:miter;stroke-miterlimit:4;stroke-dasharray:none;stroke-opacity:1"
       d="m 21.165003,194.88891 c 4.697206,1.61419 9.696698,2.34389 14.65932,2.13959 3.461908,-0.14252 6.912693,-0.73897 10.186989,-1.87215 2.631256,-0.91063 5.132782,-2.16024 7.741643,-3.13317 2.60886,-0.97294 5.387694,-1.67254 8.159991,-1.41344 2.616211,0.24452 5.079325,1.32741 7.400492,2.55889 2.321167,1.23147 4.565057,2.63075 7.010366,3.59242 3.51211,1.38121 7.339448,1.81456 11.112651,1.73972 3.773203,-0.0748 7.51712,-0.64313 11.24903,-1.20483 4.124795,-0.62084 8.379735,-1.28095 11.926215,-3.47682 1.54475,-0.95646 2.90537,-2.17656 4.31942,-3.31739 1.41406,-1.14084 2.91471,-2.22146 4.62526,-2.83391 1.83994,-0.65877 3.85613,-0.74339 5.78456,-0.42636 1.92843,0.31704 3.7764,1.02368 5.52041,1.90561 3.48801,1.76386 6.58539,4.22471 10.06285,6.00928 8.66366,4.44604 18.97978,4.34531 28.57325,2.6745 2.5795,-0.44925 5.15352,-1.00773 7.59348,-1.95761 2.43996,-0.94987 4.75279,-2.30762 6.56892,-4.19371 2.60002,-2.70018 4.0232,-6.28297 5.71465,-9.62813 1.73598,-3.43323 3.80624,-6.69238 5.4662,-10.16301 6.00728,-12.55995 6.23378,-27.56223 1.49077,-40.65206 -2.80553,-7.74274 -7.47889,-15.07746 -14.41085,-19.52369 -2.38233,-1.52805 -5.04054,-2.73134 -6.95697,-4.81405 -1.18765,-1.2907 -2.0343,-2.86944 -2.61308,-4.52517 -0.57878,-1.65573 -0.89803,-3.391632 -1.1164,-5.131961 -0.43675,-3.480659 -0.48447,-7.040182 -1.48826,-10.401452 -1.42907,-4.785328 -4.68456,-8.800291 -8.13645,-12.409457 -3.45189,-3.609166 -7.20499,-6.988078 -10.00135,-11.125949 -1.53474,-2.271007 -2.75722,-4.737235 -4.21141,-7.060638 -1.4542,-2.323404 -3.18472,-4.544042 -5.47865,-6.044301 -2.18007,-1.425792 -4.77701,-2.130711 -7.37517,-2.318178 -2.59816,-0.187467 -5.20904,0.121992 -7.77026,0.597125 -5.12243,0.950267 -10.21531,2.572439 -15.41552,2.255947 -2.86506,-0.174372 -5.65664,-0.934761 -8.44773,-1.604687 -5.790787,-1.389923 -11.703857,-2.407723 -17.659083,-2.427177 -5.955227,-0.01945 -11.973414,0.987724 -17.374228,3.496969 -4.634659,2.153286 -8.697523,5.345343 -12.671616,8.55833 -7.82866,6.32934 -15.551201,12.909607 -21.845943,20.766113 -6.294742,7.856506 -11.138704,17.124552 -12.441961,27.107036 -0.731579,5.60363 -0.339357,11.28716 -0.561446,16.93398 -0.222089,5.64682 -1.129968,11.45893 -4.159351,16.22954 -0.466053,0.73393 -0.978655,1.43703 -1.490778,2.13959 -6.1237664,8.40094 -12.4255708,17.25825 -13.91393262,27.54713 -0.68418973,4.72973 -0.29476726,9.61867 1.19005402,14.1611 1.4848213,4.54244 4.0681162,8.72937 7.5061536,12.04876 1.59256,1.5376 3.404293,2.91139 5.499917,3.6247 1.047812,0.35666 2.158908,0.54241 3.2645,0.48969 1.105592,-0.0527 2.205301,-0.34806 3.16181,-0.90502 0.322241,-0.18764 0.62917,-0.40551 0.890672,-0.67134 0.261503,-0.26582 0.476995,-0.58135 0.600106,-0.93333 0.148487,-0.42453 0.157025,-0.89673 0.02398,-1.32635 -0.133042,-0.42963 -0.406949,-0.81436 -0.769372,-1.08068"
       id="path82"
       inkscape:path-effect="#path-effect84"
       inkscape:original-d="m 21.165003,194.88891 c 2.732722,3.41348 10.211513,2.53855 14.65932,2.13959 3.35285,-0.30076 6.919011,-0.81684 10.186989,-1.87215 5.262382,-1.69933 10.226033,-5.05572 15.901634,-4.54661 5.195702,0.46606 9.405728,4.80441 14.410858,6.15131 5.021699,1.35134 16.866552,1.27426 22.361681,0.53489 3.711765,-0.49943 8.662795,-1.36915 11.926215,-3.47682 2.93989,-1.89872 5.22341,-5.70623 8.94468,-6.1513 8.48127,-1.01437 14.57862,3.42856 21.36782,7.48853 5.1253,3.06497 23.00456,3.87332 28.57325,2.6745 4.66322,-1.00392 10.63589,-2.35536 14.1624,-6.15132 2.50647,-2.698 4.0516,-6.40589 5.71465,-9.62813 1.71615,-3.32509 4.07691,-6.57399 5.4662,-10.16301 5.0007,-12.91872 5.98158,-27.35871 1.49077,-40.65206 -2.86587,-8.48332 -7.75464,-13.79185 -14.41085,-19.52369 -2.03635,-1.75353 -4.40555,-4.02938 -6.95697,-4.81405 -8.41072,-2.58668 2.01043,-13.834214 -5.21774,-20.058583 -6.12821,-5.277165 -14.35832,-16.076926 -18.1378,-23.535406 -3.04157,-6.00228 -4.92825,-7.979288 -9.69006,-13.104939 -4.36779,-4.701524 -24.81275,3.009859 -30.56095,0.534894 -2.48887,-1.07162 -5.80991,-1.156362 -8.44773,-1.604687 -11.243809,-1.910985 -23.986974,-3.503429 -35.033311,1.069792 -3.70061,1.532065 -9.463112,5.844739 -12.671616,8.55833 -15.269448,12.914129 -28.064545,27.77652 -34.287904,47.873149 -3.304652,10.67147 -1.05284,22.63494 -4.720797,33.16352 -1.004927,2.88457 0.142525,-0.93709 -1.490778,2.13959 -4.7373843,8.92388 -12.5843227,16.81309 -13.91393262,27.54713 -1.16977963,9.44369 1.27434922,20.50348 8.69620762,26.20986 3.010718,2.31484 8.129703,4.84402 11.926227,3.20937 1.148633,-0.49454 0.484838,-0.67655 1.490778,-1.60467 2.102204,-1.93957 1.714327,-1.74513 -0.745388,-2.40703"
       sodipodi:nodetypes="csssssssssssssssssssssssssssssc" />
    <path
       style="opacity:0.771044;fill:#660080;fill-opacity:1;stroke:#000000;stroke-width:1.31655;stroke-linecap:butt;stroke-linejoin:miter;stroke-miterlimit:4;stroke-dasharray:none;stroke-opacity:1"
       d="m 25.539985,37.489921 c 1.313265,5.59128 3.14575,11.060492 5.466188,16.314314 0.895315,2.027129 1.894347,4.06677 3.478482,5.616402 1.551388,1.517599 3.587618,2.475402 5.69609,2.989463 2.108471,0.514061 4.297506,0.606656 6.46746,0.571921 4.33991,-0.06947 8.802972,-0.622819 12.93122,0.717782 2.374034,0.77094 4.507021,2.133212 6.566565,3.543414 2.059543,1.410202 4.090674,2.891583 6.353513,3.945123 4.345821,2.023342 9.304169,2.349928 14.083434,1.977511 4.779266,-0.372418 9.481822,-1.405727 14.241353,-1.977511 6.28305,-0.754811 12.66347,-0.705333 18.8832,-1.872134 4.64755,-0.871865 9.19215,-2.420168 13.91393,-2.674479 5.24914,-0.282714 10.43113,1.046137 15.632,1.810581 2.60043,0.382222 5.23446,0.624476 7.85719,0.452253 2.62272,-0.172223 5.24303,-0.77078 7.56869,-1.995385 1.41483,-0.744999 2.70073,-1.709099 3.97541,-2.674478 4.12048,-3.120636 8.20483,-6.308363 11.92622,-9.895568 1.5914,-1.534015 3.1304,-3.160552 4.22387,-5.081509 1.92783,-3.386727 2.32812,-7.495821 1.68544,-11.339438 -0.64268,-3.843618 -2.2633,-7.460102 -4.17007,-10.858728 -2.1161,-3.77174 -4.64214,-7.377935 -7.9508,-10.163014 -2.84121,-2.391598 -6.23406,-4.13504 -9.84797,-4.990496 -3.61392,-0.855456 -7.44409,-0.815571 -11.02294,0.176435 -3.06594,0.849835 -6.01162,2.394385 -9.19313,2.407032 -1.91656,0.0076 -3.81242,-0.556641 -5.49401,-1.47616 -1.68159,-0.919519 -3.15698,-2.185659 -4.44451,-3.6053484 -1.10756,-1.2212402 -2.08348,-2.5595597 -3.23003,-3.7442676 -2.34255,-2.4205085 -5.42121,-4.1638777 -8.74373,-4.71821416 -3.32251,-0.55433647 -6.87332,0.12598266 -9.64255,2.04373766 -1.79562,1.2435114 -3.22316,2.9552648 -4.41476,4.7857517 -1.19159,1.8304869 -2.16556,3.7916928 -3.2128,5.7084278 -1.04724,1.916735 -2.17989,3.80625 -3.64307,5.427884 -1.46318,1.621633 -3.284452,2.973595 -5.37638,3.601622 -2.156503,0.647414 -4.457224,0.497095 -6.708495,0.534896 -1.740294,0.02922 -3.485932,0.174243 -5.217727,0 -3.0018,-0.302024 -5.839899,-1.555588 -8.397505,-3.155799 -2.557605,-1.600211 -4.875248,-3.548988 -7.255669,-5.40253 -2.9484,-2.295805 -6.031432,-4.468921 -9.452652,-5.971931 C 55.650222,7.0144708 51.849495,6.2057635 48.150123,6.7334271 43.706188,7.367292 39.689514,9.8969014 36.59705,13.150669 c -3.092465,3.253768 -5.347614,7.206902 -7.330118,11.23431 -0.384193,0.780479 -0.759522,1.565744 -1.098225,2.367013 -0.986387,2.333497 -1.655772,4.786974 -2.281859,7.241802 -0.248792,0.975491 -0.493131,1.973272 -0.415922,2.977024 0.0134,0.174135 0.03646,0.347524 0.06907,0.519103"
       id="path911"
       inkscape:path-effect="#path-effect913"
       inkscape:original-d="m 25.539985,37.489921 c -0.347048,6.106189 2.73226,11.269474 5.466188,16.314314 0.944664,1.743161 2.00701,4.032498 3.478482,5.616402 3.189889,3.433623 19.792803,3.209087 25.09477,4.279166 3.29894,0.665814 8.167955,5.914621 12.920078,7.488537 8.799967,2.914572 19.443658,1.291855 28.324787,0 6.26205,-0.910881 12.60149,-0.970573 18.8832,-1.872134 4.54855,-0.652816 9.14209,-2.103761 13.91393,-2.674479 6.7074,-0.802211 25.54498,2.641099 31.05788,0.267449 1.34261,-0.578081 2.68477,-1.97985 3.97541,-2.674478 8.76743,-4.718665 6.5975,-2.438922 11.92622,-9.895568 1.28961,-1.804602 2.99477,-3.31747 4.22387,-5.081509 3.71999,-5.338957 0.35087,-17.111228 -2.48463,-22.198166 -1.99905,-3.58635 -4.75036,-7.866361 -7.9508,-10.163014 -4.51105,-3.23714 -15.10653,-5.589663 -20.87091,-4.814061 -3.33958,0.449347 -5.58615,2.892355 -9.19313,2.407032 -3.24874,-0.437121 -7.84746,-2.830654 -9.93852,-5.0815084 C 133.40592,8.3736035 132.41096,6.3493918 131.13678,5.663636 126.28398,3.0518381 118.04663,1.7223173 112.7505,2.9891595 103.89243,5.1080286 100.54479,15.341866 96.10349,22.512845 c -0.779973,1.259354 -5.639974,0.534896 -6.708495,0.534896 -1.280664,0 -3.977653,0.572065 -5.217727,0 C 78.875043,20.601728 73.643748,17.428524 68.524094,14.489412 63.337812,11.512046 54.669028,2.6401736 48.150123,6.7334271 40.819702,11.336234 33.524033,16.136692 29.266932,24.384979 c -1.693056,3.280353 -1.098225,-1.323547 -1.098225,2.367013 0,1.025306 -2.152642,6.269895 -2.281859,7.241802 -0.172781,1.299564 -0.330784,2.629509 -0.415922,2.977024 -0.261788,1.068574 0.413254,0.851642 0.06907,0.519103"
       sodipodi:nodetypes="csssssssssssssssssssssssssssc" />
    <path
       style="opacity:0.313131;fill:url(#linearGradient1071);fill-opacity:1;stroke:#000000;stroke-width:0.250236;stroke-linecap:butt;stroke-linejoin:miter;stroke-miterlimit:4;stroke-dasharray:none;stroke-opacity:1"
       d="m -106.7907,77.877183 c 1.8713,0.222597 3.81196,-0.184586 5.43597,-1.140557 1.53701,-0.904757 2.783467,-2.294844 3.515902,-3.921043 1.291546,-0.838188 2.239558,-2.189859 2.587786,-3.689655 0.312853,-1.34744 0.142799,-2.801786 -0.472473,-4.040702 -0.115759,-1.749008 -0.304121,-3.49321 -0.564438,-5.226607 -0.20697,-1.378168 -0.461303,-2.756701 -0.92912,-4.069458 -0.652763,-1.831744 -1.735922,-3.529978 -3.229807,-4.774845 -1.97551,-1.646211 -4.647,-2.427894 -7.19832,-2.10624 -2.55131,0.321654 -4.94519,1.741946 -6.45029,3.826972 -2.87413,0.931679 -5.37852,2.957899 -6.88967,5.574211 -1.68578,2.918662 -2.1029,6.541914 -1.12443,9.76729 0.97571,0.634403 1.87836,1.381076 2.68442,2.220561 1.57765,1.643061 2.77967,3.644688 3.48866,5.809394 l 9.14581,1.770658 z"
       id="path82-5"
       sodipodi:nodetypes="ccccccscccscccc"
       inkscape:original-d="m -106.7907,77.877183 c 4.17015,-0.552214 0.46843,-4.542253 5.43597,-1.140557 0.91265,0.621817 2.524272,-3.67783 3.515902,-3.921043 2.643452,-0.853047 1.803524,-1.445946 2.587786,-3.689655 0.890486,-2.620942 0.327213,-1.343774 -0.472473,-4.040702 -0.878161,-1.831059 1.297688,-4.527041 -0.564438,-5.226607 -1.497685,-0.524796 0.358014,-2.806674 -0.92912,-4.069458 -1.09125,-1.070635 -2.556785,-3.261666 -3.229807,-4.774845 -2.16133,-5.354487 -11.15362,2.679666 -13.64861,1.720732 -4.08165,0.193083 -4.76152,-1.884824 -6.88967,5.574211 -0.58845,2.165014 -0.47129,7.631255 -1.12443,9.76729 0,0 2.97528,1.596376 2.68442,2.220561 -1.78476,3.29362 0.10825,1.04545 3.48866,5.809394 6.33082,0.226939 9.04409,1.77957 9.14581,1.770658 z"
       inkscape:path-effect="#path-effect1024" />
    <path
       style="opacity:0.875421;fill:#d4aa47;fill-opacity:0.307377;stroke:#000000;stroke-width:1.01107;stroke-linecap:butt;stroke-linejoin:miter;stroke-miterlimit:4;stroke-dasharray:none;stroke-opacity:1;filter:url(#filter1337)"
       d="m 39.104721,178.98854 c 4.014246,1.12889 8.202926,1.63521 12.370539,1.49534 2.904149,-0.0975 5.802944,-0.50861 8.596488,-1.30842 2.225469,-0.63716 4.374199,-1.51712 6.586463,-2.19872 2.212264,-0.6816 4.525146,-1.1664 6.832422,-0.97888 2.15188,0.17489 4.214189,0.92694 6.194026,1.788 1.979836,0.86106 3.914677,1.84047 5.966852,2.51111 6.031638,1.9711 12.57165,1.14368 18.870319,0.37384 3.44477,-0.42103 6.97746,-0.84377 10.06417,-2.42994 2.58287,-1.32727 4.77602,-3.43412 7.54814,-4.2991 1.53286,-0.4783 3.17604,-0.54724 4.76739,-0.33269 1.59134,0.21456 3.13538,0.70624 4.61658,1.3263 2.96238,1.24013 5.68876,2.99167 8.64766,4.24008 7.51642,3.17131 16.0198,2.90301 24.11208,1.86919 2.13425,-0.27266 4.27234,-0.59702 6.32609,-1.23848 2.05375,-0.64146 4.03207,-1.61441 5.62511,-3.06063 2.05068,-1.86168 3.34825,-4.38428 4.82241,-6.72906 1.50295,-2.39058 3.2264,-4.64284 4.61276,-7.10288 4.82194,-8.55634 5.13097,-19.38586 1.25802,-28.41151 -2.45181,-5.71378 -6.61647,-10.8311 -12.16088,-13.64501 -2.02135,-1.02588 -4.25405,-1.77565 -5.87076,-3.36453 -0.88691,-0.87164 -1.54233,-1.95961 -2.01061,-3.1116 -0.46827,-1.15199 -0.75543,-2.36997 -0.9713,-3.59462 -0.43175,-2.4493 -0.5908,-4.96827 -1.42117,-7.31262 -1.26376,-3.567953 -3.97408,-6.428117 -6.84085,-8.899765 -2.86676,-2.471648 -5.98266,-4.69158 -8.46508,-7.549022 -1.34959,-1.553479 -2.49207,-3.273664 -3.75538,-4.898089 -1.26331,-1.624425 -2.6736,-3.175234 -4.42176,-4.260886 -1.86409,-1.157648 -4.04696,-1.738495 -6.23475,-1.907485 -2.18779,-0.168991 -4.38898,0.05936 -6.55228,0.426953 -4.32659,0.735185 -8.61741,2.032536 -13.00241,1.854376 -2.40639,-0.09777 -4.76915,-0.639401 -7.12878,-1.121522 -9.79883,-2.002105 -20.271088,-2.950479 -29.563512,0.747678 -3.801247,1.512803 -7.263128,3.7514 -10.693181,5.981375 -6.379585,4.147549 -12.798561,8.358484 -18.152493,13.76558 -5.353932,5.407097 -9.631228,12.170957 -10.782,19.692727 -0.602003,3.93486 -0.337569,7.94604 -0.564614,11.9202 -0.227046,3.97416 -1.017921,8.08276 -3.419114,11.25763 -0.393033,0.51967 -0.825058,1.00844 -1.258024,1.49534 -2.534966,2.85075 -5.12797,5.66914 -7.283848,8.81636 -2.155879,3.14722 -3.876184,6.66596 -4.457688,10.43619 -0.52524,3.40544 -0.09293,6.94842 1.200356,10.14222 1.293286,3.19379 3.440371,6.03208 6.138098,8.17572 1.416778,1.12578 3.005359,2.07282 4.751882,2.54643 1.746523,0.47361 3.665017,0.44567 5.312297,-0.30341 0.26237,-0.11931 0.518589,-0.25725 0.741499,-0.43997 0.22291,-0.18271 0.4122,-0.41285 0.516524,-0.68153 0.118549,-0.30532 0.120738,-0.65421 0.006,-0.96099 -0.114707,-0.30678 -0.345262,-0.56864 -0.635043,-0.72128"
       id="path82-7"
       inkscape:path-effect="#path-effect1108"
       inkscape:original-d="m 39.104721,178.98854 c 2.306062,2.38567 8.617173,1.77419 12.370539,1.49534 2.829365,-0.21019 5.838735,-0.57088 8.596488,-1.30842 4.440758,-1.18766 8.629422,-3.53342 13.418885,-3.1776 4.384492,0.32573 7.937204,3.35778 12.160878,4.29911 4.237655,0.94445 14.233154,0.89058 18.870319,0.37384 3.13225,-0.34905 7.31026,-0.95689 10.06417,-2.42994 2.48088,-1.32699 4.40787,-3.98805 7.54814,-4.2991 7.15706,-0.70895 12.30244,2.3962 18.03163,5.23369 4.32508,2.14208 19.41283,2.70705 24.11208,1.86919 3.93515,-0.70163 8.9753,-1.64615 11.9512,-4.29911 2.11514,-1.88563 3.41902,-4.47706 4.82241,-6.72906 1.44821,-2.32389 3.44039,-4.59453 4.61276,-7.10288 4.21994,-9.02883 5.04766,-19.12086 1.25802,-28.41151 -2.41841,-5.92896 -6.54391,-9.63907 -12.16088,-13.64501 -1.7184,-1.22554 -3.71771,-2.81612 -5.87076,-3.36453 -7.09754,-1.80781 1.69654,-9.66866 -4.40308,-14.01884 -5.1714,-3.68818 -12.11655,-11.23609 -15.30593,-16.448787 -2.56669,-4.194967 -4.15881,-5.57668 -8.17714,-9.158975 -3.68584,-3.285872 -20.93871,2.103573 -25.78944,0.373844 -2.10027,-0.748958 -4.9028,-0.808178 -7.12878,-1.121522 -9.488295,-1.335568 -20.241847,-2.448525 -29.563512,0.747678 -3.122831,1.070755 -7.985618,4.084859 -10.693181,5.981375 -12.885408,9.025617 -23.6828,19.412877 -28.934493,33.458307 -2.788696,7.45824 -0.888456,15.81944 -3.983728,23.17783 -0.848031,2.01601 0.120268,-0.65493 -1.258024,1.49534 -3.997727,6.23686 -10.619519,11.75058 -11.741536,19.25255 -0.987133,6.60016 1.075391,14.32978 7.338454,18.31794 2.540651,1.61784 6.860412,3.38547 10.064179,2.24302 0.969299,-0.34563 0.409142,-0.47285 1.258023,-1.1215 1.773977,-1.35556 1.44666,-1.21967 -0.629012,-1.68227"
       sodipodi:nodetypes="csssssssssssssssssssssssssssssc"
       transform="matrix(0.97812534,0,0,1.0622969,-0.81563097,-11.664146)" />
    <ellipse
       style="fill:url(#linearGradient1347);fill-opacity:1;fill-rule:evenodd;stroke-width:0.241668"
       id="path86"
       cx="111.20692"
       cy="98.493607"
       rx="9.4086409"
       ry="8.9943924" />
    <path
       style="fill:#000000;stroke:#000000;stroke-width:0.25519px;stroke-linecap:butt;stroke-linejoin:miter;stroke-opacity:1"
       d="m 50.73211,151.02747 c 3.245211,-1.46278 7.004765,-1.75183 10.435446,-0.80234 4.100036,1.13475 7.537394,3.89855 11.429301,5.6164 3.494517,1.54245 7.377344,2.22458 11.180838,1.87213 4.187562,-0.38804 8.15052,-1.98847 12.198626,-3.12824 2.024052,-0.56989 4.090109,-1.02812 6.188889,-1.15723 2.09879,-0.1291 4.23816,0.0792 6.21033,0.80864 2.82687,1.04561 5.17711,3.09977 7.95082,4.27919 4.17042,1.77331 8.88612,1.42741 13.41701,1.33723 2.0702,-0.0412 4.14108,-0.0224 6.21157,0 1.68913,0.0183 3.38518,0.0386 5.05978,-0.18319 1.6746,-0.22183 3.33947,-0.69648 4.76611,-1.60103 1.42663,-0.90455 2.60165,-2.26892 3.07091,-3.89166 0.23463,-0.81137 0.28971,-1.6776 0.13047,-2.50707 -0.15924,-0.82946 -0.53555,-1.62013 -1.10104,-2.24751 -0.94714,-1.0508 -2.37829,-1.58766 -3.79201,-1.63923 -1.41371,-0.0516 -2.81334,0.34435 -4.1038,0.92397 -2.58093,1.15923 -4.81697,3.05372 -7.50891,3.92463 -1.8235,0.58995 -3.78289,0.6794 -5.6873,0.46389 -1.9044,-0.21551 -3.76306,-0.72815 -5.58573,-1.32068 -3.64533,-1.18504 -7.25952,-2.71243 -11.08864,-2.88748 -4.99932,-0.22854 -9.77252,1.86277 -14.659322,2.94192 -4.071685,0.89915 -8.26029,1.09707 -12.42315,1.33724 -2.427021,0.14002 -4.865227,0.29528 -7.285217,0.0636 -2.41999,-0.2317 -4.843791,-0.87073 -6.87718,-2.20316 -1.280127,-0.83883 -2.385602,-1.93748 -3.726945,-2.67448 -1.64969,-0.90642 -3.629434,-1.21393 -5.466187,-0.80233 -1.111375,0.24905 -2.148533,0.74574 -3.193751,1.19817 -1.045217,0.45244 -2.129664,0.86887 -3.266291,0.94139 -0.254751,0.0162 -0.510781,0.0151 -0.764358,0.0444 -0.253578,0.0293 -0.507951,0.091 -0.726418,0.22305 -0.151504,0.0916 -0.281591,0.21438 -0.404238,0.34203 -0.216564,0.22541 -0.414037,0.46915 -0.589613,0.72776"
       id="path915"
       inkscape:path-effect="#path-effect917"
       inkscape:original-d="m 50.73211,151.02747 c 2.445807,-1.198 7.67126,-1.39742 10.435446,-0.80234 4.532665,0.97579 7.664268,3.18476 11.429301,5.6164 2.778383,1.79441 8.003754,1.49216 11.180838,1.87213 8.273589,0.98953 16.499895,-5.65599 24.597845,-3.47683 2.66194,0.71635 5.31971,3.06539 7.95082,4.27919 3.7501,1.72998 9.34948,1.02449 13.41701,1.33723 1.33476,0.10261 4.91984,0.92694 6.21157,0 2.05251,-1.4729 14.54276,-4.79757 11.92623,-10.43046 -0.84911,-1.82798 -13.73225,3.20937 -15.40472,3.20937 -7.72246,0 -14.85613,-2.39776 -22.36167,-3.74427 -5.23258,-0.93873 -9.75276,1.76826 -14.659322,2.94192 -3.973785,0.95053 -8.342899,0.93797 -12.42315,1.33724 -3.509188,0.34339 -11.439062,0.79184 -14.162397,-2.13958 -0.972848,-1.04718 -2.242756,-2.1829 -3.726945,-2.67448 -1.765632,-0.58478 -3.69831,-0.42175 -5.466187,-0.80233 -2.245424,-0.48341 -4.554946,1.45601 -6.460042,2.13956 -0.477929,0.17149 -1.612962,-0.25862 -1.490776,0.26746 0.08983,0.38678 -0.142334,0.0601 -0.404238,0.34203 -0.351379,0.37823 -0.09269,0.72776 -0.589613,0.72776"
       sodipodi:nodetypes="cssssssssssssssssssc" />
    <ellipse
       style="fill:#ffff00;fill-opacity:0.762295;fill-rule:evenodd;stroke-width:0.0845881"
       id="path86-2"
       cx="114.56692"
       cy="99.782837"
       rx="3.2187517"
       ry="3.2210231" />
  </g>
</svg>
