<?xml version="1.0" encoding="UTF-8" standalone="no"?>
<svg
   xmlns:dc="http://purl.org/dc/elements/1.1/"
   xmlns:cc="http://creativecommons.org/ns#"
   xmlns:rdf="http://www.w3.org/1999/02/22-rdf-syntax-ns#"
   xmlns:svg="http://www.w3.org/2000/svg"
   xmlns="http://www.w3.org/2000/svg"
   xmlns:xlink="http://www.w3.org/1999/xlink"
   xmlns:sodipodi="http://sodipodi.sourceforge.net/DTD/sodipodi-0.dtd"
   xmlns:inkscape="http://www.inkscape.org/namespaces/inkscape"
   width="210mm"
   height="297mm"
   viewBox="0 0 210 297"
   version="1.1"
   id="svg1355"
   inkscape:version="1.0.2-2 (e86c870879, 2021-01-15)"
   sodipodi:docname="Ooze-purple-slim-hand.svg">
  <defs
     id="defs1349">
    <linearGradient
       inkscape:collect="always"
       id="linearGradient1437">
      <stop
         style="stop-color:#ff00ff;stop-opacity:1;"
         offset="0"
         id="stop1433" />
      <stop
         style="stop-color:#806600;stop-opacity:1"
         offset="1"
         id="stop1435" />
    </linearGradient>
    <inkscape:path-effect
       effect="spiro"
       id="path-effect1430"
       is_visible="true"
       lpeversion="1" />
    <inkscape:path-effect
       effect="spiro"
       id="path-effect1403"
       is_visible="true"
       lpeversion="1" />
    <inkscape:path-effect
       effect="spiro"
       id="path-effect1395"
       is_visible="true"
       lpeversion="1" />
    <linearGradient
       inkscape:collect="always"
       xlink:href="#linearGradient1437"
       id="linearGradient1439"
       x1="7.5595236"
       y1="179.91667"
       x2="224.89583"
       y2="167.44345"
       gradientUnits="userSpaceOnUse" />
    <filter
       inkscape:collect="always"
       style="color-interpolation-filters:sRGB"
       id="filter2122"
       x="-0.01626405"
       width="1.0325281"
       y="-0.017086148"
       height="1.0341723">
      <feGaussianBlur
         inkscape:collect="always"
         stdDeviation="0.62337925"
         id="feGaussianBlur2124" />
    </filter>
  </defs>
  <sodipodi:namedview
     id="base"
     pagecolor="#ffffff"
     bordercolor="#666666"
     borderopacity="1.0"
     inkscape:pageopacity="0.0"
     inkscape:pageshadow="2"
     inkscape:zoom="0.7"
     inkscape:cx="-11.810613"
     inkscape:cy="638.05645"
     inkscape:document-units="mm"
     inkscape:current-layer="layer1"
     inkscape:document-rotation="0"
     showgrid="false"
     inkscape:window-width="1920"
     inkscape:window-height="986"
     inkscape:window-x="-11"
     inkscape:window-y="-11"
     inkscape:window-maximized="1" />
  <metadata
     id="metadata1352">
    <rdf:RDF>
      <cc:Work
         rdf:about="">
        <dc:format>image/svg+xml</dc:format>
        <dc:type
           rdf:resource="http://purl.org/dc/dcmitype/StillImage" />
        <dc:title></dc:title>
      </cc:Work>
    </rdf:RDF>
  </metadata>
  <g
     inkscape:label="Layer 1"
     inkscape:groupmode="layer"
     id="layer1">
    <path
       style="fill:url(#linearGradient1439);stroke:#000000;stroke-width:1.292;stroke-linecap:butt;stroke-linejoin:miter;stroke-opacity:1;fill-opacity:1;stroke-miterlimit:4;stroke-dasharray:none"
       d="m 16.632215,241.16826 c -0.546442,1.76445 -0.564606,3.67594 -0.146039,5.47501 0.418566,1.79908 1.264895,3.48659 2.379221,4.95973 2.228654,2.94628 5.462528,4.98918 8.84337,6.47827 2.645052,1.16501 5.464005,2.03731 8.353415,2.10695 2.88941,0.0696 5.866285,-0.72184 8.082763,-2.57677 1.263406,-1.05732 2.24066,-2.41774 3.070659,-3.84085 0.829999,-1.4231 1.525088,-2.92037 2.315125,-4.36604 0.790038,-1.44567 1.685562,-2.85267 2.856298,-4.01177 1.170737,-1.15909 2.640563,-2.06328 4.263704,-2.34531 1.998924,-0.34732 4.083294,0.28157 5.772034,1.40606 1.688739,1.1245 3.021257,2.71113 4.158539,4.39129 1.137282,1.68015 2.101495,3.47129 3.209894,5.17064 1.108398,1.69935 2.381444,3.32604 4.010327,4.53561 2.332098,1.73177 5.309573,2.50829 8.210359,2.35619 2.900786,-0.15211 5.719287,-1.19857 8.148478,-2.79128 4.858384,-3.18542 8.048863,-8.36412 10.439278,-13.65909 0.51776,-1.14688 1.01079,-2.3164 1.73308,-3.34679 0.7223,-1.03038 1.70736,-1.92694 2.91192,-2.29087 1.28929,-0.38953 2.71816,-0.12448 3.90086,0.51988 1.18271,0.64436 2.14159,1.63968 2.9385,2.72546 1.59383,2.17156 2.63239,4.77503 4.59451,6.62058 1.68859,1.58828 3.90666,2.4667 6.07424,3.28863 2.99576,1.13597 6.03435,2.23989 9.20707,2.68589 3.17271,0.446 6.52568,0.19254 9.37296,-1.27648 3.35277,-1.72983 5.66029,-4.92217 7.86077,-7.98668 1.8952,-2.63936 3.81211,-5.27821 5.33959,-8.1461 1.52748,-2.86789 2.663,-5.99456 2.87851,-9.23671 0.22598,-3.39964 -0.58014,-6.83879 -2.14385,-9.8659 -2.03582,-3.94105 -5.26205,-7.11639 -8.4652,-10.18499 -3.20316,-3.06859 -6.48668,-6.16421 -8.6856,-10.01664 -3.38375,-5.92823 -3.8234,-13.46633 -1.07193,-19.71317 1.93587,-4.39514 5.25892,-7.99785 8.25967,-11.74756 3.00076,-3.74972 5.81025,-7.93349 6.38997,-12.70096 0.34772,-2.85952 -0.14068,-5.78339 -1.14831,-8.48199 -1.00763,-2.6986 -2.52178,-5.18514 -4.24163,-7.49596 -3.4397,-4.62163 -7.71275,-8.58397 -11.04622,-13.28281 -2.93505,-4.13723 -5.14174,-8.96437 -5.28411,-14.03497 -0.0712,-2.5353 0.38484,-5.09928 1.45213,-7.40009 1.06728,-2.30081 2.75786,-4.329059 4.9039,-5.680837 3.05508,-1.924371 6.77814,-2.379329 10.36193,-2.818832 2.04946,-0.251339 4.10709,-0.513237 6.17124,-0.460731 2.06415,0.05251 4.1529,0.433256 5.97724,1.400338 1.81347,0.961318 3.28908,2.458187 4.56586,4.065244 1.27677,1.607058 2.38319,3.343388 3.65222,4.956568 2.12039,2.69542 4.66976,5.01668 7.03146,7.50339 2.3617,2.48671 4.57702,5.20524 5.83164,8.39699 0.81909,2.08378 1.20772,4.34242 1.07192,6.57728 -0.12455,2.04963 -0.68107,4.04422 -1.16325,6.04021 -0.48218,1.996 -0.89497,4.04364 -0.72459,6.08997 0.0852,1.02316 0.31845,2.03905 0.74579,2.97259 0.42734,0.93355 1.05276,1.78341 1.85677,2.42193 0.804,0.63852 1.78981,1.05929 2.8135,1.138 1.02368,0.0787 2.08094,-0.19547 2.90334,-0.81011 0.63812,-0.47691 1.12327,-1.14598 1.41959,-1.88545 0.29632,-0.73948 0.4076,-1.54718 0.36695,-2.34278 -0.0678,-1.32758 -0.54785,-2.60078 -1.12862,-3.79652 -0.58076,-1.19574 -1.26767,-2.34003 -1.79278,-3.56123 -0.52511,-1.22121 -0.88786,-2.54655 -0.77225,-3.87083 0.0578,-0.66214 0.23693,-1.31708 0.55637,-1.89994 0.31943,-0.58287 0.78183,-1.09178 1.35074,-1.43545 0.67846,-0.40984 1.49092,-0.5735 2.28212,-0.52589 0.79121,0.0476 1.56191,0.29908 2.26401,0.66694 1.4042,0.73574 2.51854,1.90942 3.64017,3.0297 1.12163,1.12028 2.31871,2.23404 3.80062,2.79709 0.74096,0.28152 1.54577,0.41607 2.33278,0.32182 0.78702,-0.0943 1.55435,-0.42631 2.11647,-0.98514 0.54943,-0.54621 0.88378,-1.28964 0.99319,-2.05661 0.10941,-0.76697 0.002,-1.55583 -0.24505,-2.29006 -0.4944,-1.46848 -1.51634,-2.69118 -2.53468,-3.85901 -1.73903,-1.99432 -3.61927,-4.00277 -6.07423,-4.99005 -1.16441,-0.46828 -2.42989,-0.69285 -3.52617,-1.30382 -0.54815,-0.30549 -1.05071,-0.71109 -1.39925,-1.23291 -0.34855,-0.52182 -0.53307,-1.16732 -0.43421,-1.787 0.0841,-0.527 0.36472,-1.00644 0.7146,-1.40941 0.83124,-0.95738 2.044,-1.51718 3.2818,-1.79176 1.23779,-0.27457 2.51613,-0.28929 3.7836,-0.32146 1.26748,-0.0322 2.5489,-0.0851 3.76843,-0.43194 1.21954,-0.3468 2.38796,-1.0185 3.10121,-2.06674 0.67832,-0.99691 0.89064,-2.279 0.65528,-3.46161 -0.23537,-1.18261 -0.89865,-2.2613 -1.78929,-3.07416 -0.89063,-0.81285 -1.99987,-1.367452 -3.16372,-1.682738 -1.16385,-0.315286 -2.38244,-0.397511 -3.58665,-0.335655 -2.40844,0.123713 -4.74613,0.811933 -7.10723,1.302883 -2.36111,0.49095 -4.84296,0.7815 -7.16151,0.11805 -2.37877,-0.68068 -4.38334,-2.315789 -6.00268,-4.186511 -1.61934,-1.870721 -2.9132,-3.995543 -4.35925,-6.003227 -2.63556,-3.659186 -5.82785,-6.971012 -9.66279,-9.343572 -3.83495,-2.372561 -8.34553,-3.76838 -12.84763,-3.509682 -4.2396,0.243614 -8.28159,1.913424 -12.50578,2.349027 -1.58054,0.162987 -3.1917,0.14991 -4.74133,-0.201262 -1.54964,-0.351173 -3.03921,-1.053604 -4.19138,-2.147765 -0.98583,-0.93619 -1.70177,-2.136858 -2.15232,-3.419552 -0.45056,-1.282694 -0.64242,-2.64684 -0.66503,-4.006176 -0.0452,-2.71867 0.57372,-5.397491 1.03081,-8.077842 0.70275,-4.120848 1.00433,-8.480311 -0.52084,-12.372495 -0.76258,-1.946093 -1.98768,-3.733667 -3.6433,-5.009498 -1.65561,-1.275832 -3.75459,-2.01357 -5.84049,-1.880028 -2.45644,0.157264 -4.7235,1.493692 -6.4454,3.252637 -1.7219,1.758945 -2.96498,3.923108 -4.117,6.098347 -1.15202,2.17524 -2.24087,4.401258 -3.71824,6.370064 -1.47737,1.968806 -3.396758,3.692408 -5.728626,4.48058 -1.611847,0.544805 -3.414709,0.611855 -5.002317,0 -1.097616,-0.423015 -2.064236,-1.157355 -2.819589,-2.0591 -0.755353,-0.901744 -1.303643,-1.967294 -1.664814,-3.086783 -0.722344,-2.238979 -0.698966,-4.6502 -0.471192,-6.991764 0.227774,-2.341565 0.652609,-4.667459 0.70954,-7.019387 0.05693,-2.351928 -0.280765,-4.780194 -1.470867,-6.809594 -1.297583,-2.212678 -3.564679,-3.796606 -6.053882,-4.415908 -2.489204,-0.619302 -5.172563,-0.304143 -7.523833,0.721136 -3.407244,1.48574 -6.122377,4.481724 -7.266647,8.018302 -1.14427,3.536577 -0.698736,7.555205 1.192407,10.755254 0.549186,1.431876 0.727515,3.00421 0.51295,4.522708 -0.214564,1.518497 -0.821557,2.979865 -1.745972,4.20352 -0.924415,1.223655 -2.164246,2.206943 -3.566286,2.828358 -1.40204,0.621415 -2.963249,0.879609 -4.490705,0.742677 -2.934252,-0.263047 -5.610696,-1.970727 -7.503472,-4.228254 -2.395792,-2.857478 -3.622797,-6.481276 -5.165407,-9.876177 -0.771306,-1.697451 -1.637573,-3.363989 -2.768058,-4.84664 -1.130485,-1.482651 -2.539453,-2.781817 -4.215014,-3.599586 -2.801562,-1.367322 -6.194934,-1.268844 -9.074146,-0.07366 -2.879213,1.195178 -5.263242,3.408337 -7.00472,5.993984 -3.16037,4.692336 -4.269159,10.585168 -3.717623,16.2156 0.551536,5.630432 2.673326,11.020114 5.504164,15.918309 1.641132,2.839648 3.526364,5.542616 4.973471,8.485879 1.447106,2.943263 2.453171,6.203793 2.172693,9.471552 -0.268555,3.128854 -1.702812,6.062224 -3.557929,8.596064 -1.855118,2.53385 -4.129878,4.72438 -6.331016,6.9642 -2.201137,2.23983 -4.359873,4.56873 -5.919637,7.29435 -1.559763,2.72561 -2.491214,5.90899 -2.056827,9.01916 0.350284,2.508 1.562999,4.82802 3.075934,6.85873 1.512936,2.03071 3.328849,3.81199 5.071579,5.64928 1.742729,1.83729 3.434408,3.76031 4.636916,5.98892 1.202507,2.22861 1.891945,4.80749 1.507898,7.31054 -0.323765,2.11016 -1.387279,4.04819 -2.709283,5.72446 -1.322004,1.67627 -2.904428,3.12492 -4.436881,4.61125 -4.054991,3.93294 -7.842857,8.23381 -10.4654026,13.23713 -2.6225453,5.00332 -4.0213184,10.78525 -3.1123089,16.36061 0.7739883,4.74722 3.1452966,9.07075 5.6604225,13.17066 2.515126,4.09991 5.237814,8.13531 6.845364,12.66862 1.715181,4.83683 2.05154,10.32973 0,15.03377 -0.688844,1.57947 -1.634084,3.05204 -2.143849,4.69806 z"
       id="path1393"
       inkscape:path-effect="#path-effect1395"
       inkscape:original-d="m 16.632215,241.16826 c -0.495932,11.8338 1.466584,14.96905 11.076552,16.91301 5.396416,1.09158 11.416601,3.19685 16.436178,-0.46982 4.751611,-3.47091 7.361279,-12.30922 12.505786,-14.56397 7.571501,-3.31845 9.080432,13.73503 17.150794,15.5036 13.645032,2.99016 16.878874,-4.31246 26.798115,-14.09418 1.79349,-1.76862 2.44446,-4.19097 4.645,-5.63766 4.67365,-3.07256 8.77429,7.06837 11.43387,9.86592 1.83124,1.92623 4.2469,1.68686 6.07424,3.28863 9.09482,7.97219 11.06931,9.30978 18.58003,1.40941 2.71622,-2.85714 5.37584,-4.71939 7.86077,-7.98668 3.64284,-4.78976 7.46611,-10.46159 8.2181,-17.38281 0.44601,-4.10509 -0.88509,-6.55573 -2.14385,-9.8659 -3.92632,-10.32501 -12.13422,-11.95659 -17.1508,-20.20163 -1.01507,-1.66833 -1.07193,-17.71795 -1.07193,-19.71317 0,-19.05323 17.05915,-11.77601 14.64964,-24.44852 -3.48354,-18.32133 -16.43616,-2.92906 -16.43616,-29.26076 0,-4.81401 -0.38918,-22.63346 1.07192,-27.115897 1.69045,-5.186259 6.00638,-2.818832 10.36193,-2.818832 2.70207,0 10.45279,-1.289965 12.14848,0.939607 0.60777,0.799122 7.47486,8.044572 8.21808,9.021812 1.84354,2.42396 12.01264,12.54572 12.8631,15.90038 0.53157,2.09678 0.42857,4.03956 1.07192,6.57728 0.62661,2.47171 4.12618,19.87341 6.43156,17.85259 1.23478,-1.08237 1.02184,-2.88762 1.78654,-4.22823 4.47545,-7.84605 -1.78654,-9.84716 -1.78654,-14.56397 0,-0.22461 15.69497,5.62937 16.43617,5.30452 2.96834,-1.30098 -2.41297,-4.08741 -1.78654,-8.20568 0.36979,-2.43107 -4.33029,-7.28306 -6.07423,-4.99005 -0.43484,0.57175 -3.73502,-2.18761 -5.35963,-4.32373 -0.30366,-0.39925 0.5557,-0.9092 0.7146,-1.40941 2.31569,-7.28933 20.60923,4.18687 13.93504,-4.6119 -4.01984,-5.29946 -17.42545,-4.02517 -22.15312,-7.13323 -3.00193,-1.973556 -7.58703,-7.75736 -10.36193,-10.189738 -4.42065,-3.874983 -18.86688,-8.062568 -22.51042,-12.853254 -1.94847,-2.561929 -10.52382,1.046042 -12.50578,2.349027 -1.98971,1.30808 -7.27789,-1.261096 -8.93271,-2.349027 -2.07426,-1.363664 -0.97782,-12.313565 -1.78654,-15.50357 -1.52921,-6.032023 -5.58558,-15.7758 -10.00463,-19.262021 -9.33962,-7.368097 -15.76786,14.624838 -20.009266,20.201628 -0.523461,0.688272 -4.409299,0.08664 -5.002317,0 C 83.631834,61.885953 91.431068,43.882352 86.307315,37.145407 85.458759,36.029684 73.765651,32.088385 72.7296,33.450635 70.788221,36.003249 68.197542,49.182595 66.65536,52.224191 63.126494,57.722609 59.603599,58.616247 57.365347,64.521454 56.417726,67.013405 50.556303,60.874242 49.861875,60.2932 44.550616,55.84917 40.536436,49.394521 37.713396,41.970797 37.404144,41.15755 21.93763,47.663385 21.63453,47.891116 c -7.27304,5.464535 -0.06591,22.391173 1.786541,32.133909 1.005504,5.288341 8.721146,11.744851 7.146164,17.957431 -2.831893,11.170524 -19.15406,18.318764 -17.865409,31.873774 0.858489,9.03027 16.730559,16.18977 14.292327,25.80747 -1.120276,4.41896 -4.788952,7.23633 -7.146164,10.33571 -4.849427,6.37625 -12.9101393,20.8202 -13.5777115,29.59774 -0.864331,11.36464 7.2949915,18.98789 12.5057865,25.83928 1.664911,2.18911 0.929156,12.59038 0,15.03377 -0.938018,2.46672 -2.143849,1.40195 -2.143849,4.69806 z"
       sodipodi:nodetypes="cssscsssssssssssscsssssssssssssssssssssscssccsssssssssssc" />
    <path
       style="fill:#000000;stroke:#000000;stroke-width:0.264583px;stroke-linecap:butt;stroke-linejoin:miter;stroke-opacity:1"
       d="m 54.617558,201.5558 c 0.301968,-0.45332 0.717973,-0.82689 1.189998,-1.0987 0.472025,-0.2718 0.9991,-0.44315 1.537766,-0.52391 1.077333,-0.16152 2.183175,0.0377 3.211207,0.39804 2.056065,0.72079 3.8641,2.07314 5.967279,2.64198 1.652947,0.44707 3.407862,0.38405 5.095447,0.094 1.687586,-0.2901 3.327792,-0.80096 4.981029,-1.24695 1.653237,-0.446 3.339182,-0.83004 5.051312,-0.85681 1.712129,-0.0268 3.466445,0.32499 4.904951,1.25386 0.992465,0.64085 1.802382,1.53329 2.477907,2.50249 0.675525,0.9692 1.225058,2.01915 1.781666,3.0612 0.556608,1.04205 1.124863,2.08354 1.833309,3.02894 0.708446,0.94541 1.566413,1.79754 2.60057,2.36868 1.320452,0.72925 2.862804,0.96565 4.371245,0.96889 1.508446,0.003 3.007566,-0.21334 4.511286,-0.33256 1.50373,-0.11923 3.03861,-0.13841 4.49606,0.25049 1.45745,0.38891 2.84321,1.22817 3.63034,2.51496 0.68188,1.11473 0.86587,2.47765 0.75595,3.77977 -0.1552,1.83854 -0.87413,3.62035 -2.00822,5.07574 -1.1341,1.45539 -2.67618,2.58297 -4.39313,3.25856 -1.71695,0.67558 -3.60364,0.90157 -5.43647,0.68926 -1.832827,-0.21231 -3.609576,-0.8592 -5.17111,-1.84202 -3.307305,-2.0816 -5.485239,-5.49859 -7.857501,-8.60402 -1.186131,-1.55272 -2.453839,-3.05974 -3.960865,-4.30341 -1.507027,-1.24366 -3.271869,-2.22019 -5.190561,-2.58959 -1.57872,-0.30395 -3.213831,-0.18991 -4.792381,0.11492 -1.578551,0.30482 -3.113663,0.79684 -4.655135,1.25357 -1.541473,0.45673 -3.101955,0.88083 -4.701362,1.04404 -1.599407,0.16321 -3.250047,0.0562 -4.749931,-0.52265 -1.729243,-0.66739 -3.191581,-1.94667 -4.208846,-3.49614 -1.017265,-1.54947 -1.603612,-3.35873 -1.838775,-5.19731 -0.08059,-0.63011 -0.121115,-1.26933 -0.0483,-1.90039 0.07281,-0.63105 0.263099,-1.2562 0.615269,-1.78488 z"
       id="path1401"
       inkscape:path-effect="#path-effect1403"
       inkscape:original-d="m 54.617558,201.5558 c 3.182182,-2.41825 5.255784,0.309 11.90625,1.41741 6.496632,1.08277 14.647288,-3.44867 20.032739,-0.75595 5.362602,2.6813 2.957203,8.09318 8.693452,10.96131 4.478769,2.23938 11.532231,-2.07491 17.008931,3.40178 0.49991,0.49991 0.75595,3.05853 0.75595,3.77977 0,7.193 -11.25194,7.18154 -17.00893,7.18154 -8.229779,0 -6.305989,-12.82129 -17.008927,-15.49702 -6.416421,-1.60411 -13.107971,3.33759 -18.898809,1.88988 -3.717308,-0.92933 -4.111648,-6.11216 -6.047621,-8.69345 -1.608473,-2.14464 -0.422597,-2.93327 0.566965,-3.68527 z"
       sodipodi:nodetypes="asssssssssa" />
    <ellipse
       style="opacity:0.875421;fill:#ccff00;fill-opacity:0.762295;stroke:#d4ff2a;stroke-width:1.365"
       id="path1405"
       cx="82.020836"
       cy="157.2381"
       rx="10.583333"
       ry="7.9375" />
    <ellipse
       style="opacity:0.875421;fill:#000000;fill-opacity:0.762295;stroke:#000000;stroke-width:1.365"
       id="path1407"
       cx="80.982666"
       cy="162.2326"
       rx="1.7372519"
       ry="2.0045214" />
    <path
       style="opacity:1;fill:#8800aa;stroke:#000000;stroke-width:0.183827px;stroke-linecap:butt;stroke-linejoin:miter;stroke-opacity:1;filter:url(#filter2122)"
       d="m 76.202834,139.07485 c 9.641496,1.15774 19.271078,2.4147 28.886706,3.77062 3.99901,0.56391 8.09819,1.14217 12.04486,0.28553 1.97334,-0.42832 3.88555,-1.2236 5.47774,-2.46555 1.59219,-1.24195 2.85133,-2.94677 3.40638,-4.88828 0.60304,-2.10938 0.35492,-4.3935 -0.34633,-6.47229 -0.70125,-2.0788 -1.83436,-3.98272 -3.02044,-5.82835 -1.18608,-1.84563 -2.43761,-3.65809 -3.40973,-5.62485 -0.97211,-1.96675 -1.66239,-4.11775 -1.63817,-6.3115 0.0191,-1.72937 0.48034,-3.42671 1.08756,-5.04609 0.60723,-1.61937 1.36186,-3.17949 2.00098,-4.78655 1.41851,-3.56683 2.26114,-7.36196 2.4854,-11.193949 -1.25839,-2.05918 -3.37898,-3.572263 -5.73551,-4.092392 -1.22246,-0.26982 -2.52939,-0.294057 -3.63206,-0.886788 -0.74973,-0.403008 -1.35472,-1.052794 -1.75536,-1.803787 -0.40064,-0.750994 -0.60226,-1.599719 -0.64145,-2.449994 -0.0784,-1.700549 0.47652,-3.367117 1.15743,-4.927364 0.8609,-1.972667 1.94372,-3.879553 2.37441,-5.98836 0.21534,-1.054404 0.2606,-2.154604 0.0228,-3.204165 -0.23783,-1.04956 -0.77136,-2.046758 -1.58692,-2.748895 -0.73078,-0.629147 -1.66723,-1.002386 -2.62605,-1.104969 -0.95883,-0.102584 -1.93776,0.05886 -2.83558,0.410705 -1.79563,0.703688 -3.22373,2.131043 -4.32788,3.712291 -1.10414,1.581248 -1.93076,3.335741 -2.88634,5.010956 -0.955578,1.675215 -2.071935,3.306278 -3.610718,4.468871 -1.274941,0.963254 -2.834171,1.57525 -4.431588,1.615148 -1.597417,0.0399 -3.223697,-0.516582 -4.384079,-1.615148 -0.982754,-0.930401 -1.59686,-2.198415 -1.932798,-3.509368 -0.335937,-1.310952 -0.411407,-2.67345 -0.448988,-4.02624 -0.03758,-1.352789 -0.03922,-2.711262 -0.232762,-4.050662 -0.193545,-1.339399 -0.589529,-2.672636 -1.351496,-3.791053 -0.988575,-1.451035 -2.571954,-2.465832 -4.288112,-2.836757 -1.716157,-0.370926 -3.548492,-0.111359 -5.131226,0.64873 -1.970969,0.946534 -3.554801,2.671772 -4.329741,4.716305 -0.77494,2.044533 -0.732569,4.386152 0.115829,6.401311 0.03482,1.780222 -0.62167,3.565109 -1.801702,4.898498 -1.180032,1.33339 -2.871863,2.202017 -4.643113,2.383887 -2.152819,0.221049 -4.310497,-0.547485 -6.140868,-1.702143 -3.666942,-2.313227 -6.164585,-6.052817 -9.363279,-8.979562 -2.028794,-1.856308 -4.423927,-3.420193 -7.120394,-3.959593 -1.348233,-0.2697 -2.757051,-0.274749 -4.090684,0.05976 -1.333632,0.334508 -2.588896,1.015688 -3.543664,2.005076 -1.438519,1.490681 -2.119971,3.611788 -2.101745,5.683294 0.01823,2.071505 0.688676,4.096851 1.656366,5.928528 1.935381,3.663355 5.014901,6.598685 7.155917,10.145785 1.137342,1.884276 2.005286,3.944714 2.420806,6.106053 0.41552,2.161338 0.36898,4.426531 -0.269586,6.532777 -0.694008,2.289114 -2.056957,4.321464 -3.595498,6.153014 -1.53854,1.83156 -3.266009,3.49591 -4.836604,5.30006 -1.570596,1.80414 -3.000391,3.78011 -3.814465,6.02933 -0.814074,2.24922 -0.963708,4.81051 -0.01367,7.00576 0.54152,1.25129 1.416402,2.33899 2.429639,3.2513 1.013237,0.91231 2.164877,1.6579 3.343366,2.34355 2.356979,1.37131 4.884758,2.55011 6.81478,4.47647 2.08393,2.07997 3.309345,4.87528 5.268861,7.07286 1.848616,2.07321 4.341367,3.56376 7.042563,4.21114 2.701196,0.64739 5.598797,0.44871 8.186353,-0.5613 z"
       id="path1393-3"
       inkscape:path-effect="#path-effect1430"
       inkscape:original-d="m 76.202834,139.07485 c 0,0 28.886706,4.95217 28.886706,3.77062 0,-11.28324 22.60054,0.4363 20.92898,-7.0683 -2.41666,-10.84981 -8.41467,-8.64348 -8.41467,-24.23699 0,-2.85084 2.07492,-7.17816 3.08854,-9.83264 1.17272,-3.071293 -0.5362,-11.193949 2.4854,-11.193949 16.11697,6.894655 17.93114,-17.170311 -5.73551,-4.092392 -1.38033,0.774641 -2.48405,-0.242521 -3.63206,-0.886788 -1.43899,-0.807556 -0.67835,-7.292037 -1.23938,-9.181145 -1.06087,-3.572136 3.8759,-9.876896 0.81025,-11.94142 -6.47923,-4.363355 -13.34416,9.195302 -16.286568,12.497854 -0.363141,0.407591 -8.40428,0.05131 -8.815667,0 -5.82212,-0.726082 -0.411505,-11.387734 -3.966044,-15.377323 -0.58867,-0.660726 -8.700592,-2.994746 -9.419338,-2.188027 -1.346803,1.511647 -3.14405,9.316396 -4.213912,11.117616 -2.448108,3.256138 -4.892058,3.785347 -6.444815,7.282385 -0.657405,1.47572 -5.659116,-1.358057 -6.140868,-1.702143 -3.684607,-2.631737 -7.404837,-4.583265 -9.363279,-8.979562 -0.214537,-0.481601 -13.475395,-5.637757 -14.754742,-1.894757 -1.938671,5.671991 5.425407,15.987998 6.710538,21.757607 0.697557,3.131727 3.243839,8.959771 2.15122,12.63883 -1.964585,6.615134 -13.154214,16.460944 -12.260234,24.488164 0.59556,5.34769 14.279272,4.37576 12.587785,10.07132 -0.777166,2.61689 6.904141,5.23742 5.268861,7.07286 -3.364224,3.77599 15.692038,-1.54818 15.228916,3.64984 9.327862,36.64056 10.907706,3.55822 12.539891,-5.77166 z"
       sodipodi:nodetypes="cssscccsssscssccsssssssscc" />
  </g>
</svg>
